<svg width="1200" height="676" viewBox="0 0 1200 676" fill="none" xmlns="http://www.w3.org/2000/svg">
<g clip-path="url(#clip0_14_1193)">
<g clip-path="url(#clip1_14_1193)">
<mask id="mask0_14_1193" style="mask-type:luminance" maskUnits="userSpaceOnUse" x="61" y="-188" width="1077" height="1077">
<path d="M1137.74 -187.926H61.9041V888.222H1137.74V-187.926Z" fill="white"/>
</mask>
<g mask="url(#mask0_14_1193)">
<path fill-rule="evenodd" clip-rule="evenodd" d="M342.01 374.764L341.994 374.743C320.39 344.231 307.083 311.102 302.074 275.357C282.996 284.108 265.881 296.444 250.729 312.364C222.996 341.504 208.735 375.643 207.945 414.783C207.135 454.995 220.659 490.357 248.518 520.868C276.14 551.122 310.726 569.017 352.275 574.556L565.003 574.566L707.045 574.551L706.911 651.418L564.87 651.433L347.361 651.422L345.044 651.139C283.709 643.654 232.605 617.528 191.731 572.761C150.097 527.163 129.891 474.034 131.114 413.375C132.305 354.318 153.639 302.999 195.116 259.418C226.185 226.774 262.781 204.502 304.906 192.603C313.976 150.415 335.138 112.74 368.391 79.5776C415.092 33.0013 472.106 8.93462 539.432 7.37751C598.44 6.01277 651.04 22.8526 697.233 57.8968C743.279 92.83 772.452 137.704 784.753 192.52C785.308 194.991 785.616 197.492 785.676 200.024C785.706 201.282 785.674 202.539 785.581 203.794C785.487 205.049 785.332 206.297 785.116 207.537C784.901 208.777 784.624 210.003 784.288 211.215C783.951 212.428 783.556 213.622 783.102 214.795C782.649 215.969 782.139 217.118 781.572 218.241C781.005 219.365 780.385 220.458 779.711 221.52C779.037 222.583 778.312 223.61 777.538 224.601C776.763 225.592 775.941 226.543 775.073 227.453C774.204 228.364 773.293 229.229 772.34 230.05C771.387 230.871 770.395 231.643 769.366 232.366C768.336 233.089 767.274 233.76 766.178 234.38C765.083 234.998 763.96 235.562 762.81 236.071C761.659 236.579 760.486 237.03 759.291 237.423C758.096 237.816 756.884 238.149 755.656 238.423C754.428 238.698 753.19 238.911 751.94 239.063C750.692 239.215 749.438 239.306 748.18 239.335C747.08 239.36 745.981 239.339 744.882 239.27C743.784 239.201 742.691 239.085 741.602 238.922C740.514 238.759 739.435 238.549 738.364 238.294C737.294 238.038 736.237 237.737 735.192 237.39C734.147 237.043 733.12 236.653 732.108 236.218C731.097 235.783 730.107 235.305 729.137 234.785C728.166 234.266 727.22 233.705 726.298 233.104C725.376 232.503 724.481 231.863 723.615 231.185C722.747 230.507 721.911 229.793 721.105 229.043C720.299 228.293 719.527 227.51 718.788 226.693C718.049 225.877 717.347 225.031 716.681 224.155C716.015 223.278 715.388 222.374 714.799 221.444C714.21 220.514 713.663 219.56 713.157 218.582C712.65 217.605 712.186 216.607 711.765 215.59C711.344 214.573 710.967 213.539 710.635 212.49C710.303 211.44 710.016 210.379 709.776 209.305L709.764 209.253L709.751 209.198C701.541 172.728 681.899 142.704 650.823 119.128C618.897 94.9071 582.377 83.272 541.263 84.223C494.406 85.3064 454.874 101.909 422.667 134.03C390.989 165.622 375.667 203.088 376.699 246.429C377.428 277.02 386.745 304.972 404.649 330.283L404.702 330.358C405.802 331.91 406.782 333.538 407.641 335.235C408.499 336.933 409.228 338.685 409.826 340.491C410.425 342.297 410.887 344.137 411.212 346.011C411.538 347.885 411.723 349.772 411.768 351.673C411.798 352.932 411.766 354.189 411.673 355.444C411.579 356.699 411.425 357.947 411.209 359.187C410.993 360.427 410.716 361.653 410.38 362.865C410.043 364.078 409.648 365.272 409.195 366.445C408.741 367.619 408.231 368.768 407.664 369.891C407.097 371.015 406.477 372.108 405.803 373.17C405.129 374.233 404.405 375.26 403.63 376.251C402.855 377.242 402.033 378.193 401.164 379.103C400.296 380.014 399.385 380.879 398.432 381.7C397.478 382.521 396.487 383.293 395.458 384.016C394.429 384.739 393.366 385.41 392.271 386.03C391.175 386.648 390.052 387.212 388.902 387.721C387.751 388.229 386.578 388.68 385.383 389.073C384.188 389.466 382.976 389.799 381.748 390.073C380.52 390.347 379.282 390.56 378.033 390.713C376.784 390.865 375.53 390.956 374.272 390.985C372.704 391.021 371.141 390.961 369.581 390.806C368.021 390.651 366.476 390.402 364.946 390.057C363.417 389.713 361.914 389.277 360.437 388.748C358.961 388.22 357.522 387.603 356.121 386.899C354.72 386.194 353.367 385.407 352.062 384.537C350.757 383.667 349.51 382.721 348.32 381.698C347.131 380.675 346.009 379.584 344.953 378.424C343.897 377.264 342.916 376.044 342.01 374.764Z" fill="url(#paint0_linear_14_1193)"/>
<path d="M805.287 634.552C928.658 634.552 1028.67 538.366 1028.67 419.714C1028.67 301.062 928.658 204.876 805.287 204.876C681.916 204.876 581.904 301.062 581.904 419.714C581.904 538.366 681.916 634.552 805.287 634.552Z" stroke="url(#paint1_linear_14_1193)" stroke-width="74"/>
<path fill-rule="evenodd" clip-rule="evenodd" d="M1033.51 16.6059C1032.6 19.1859 1031.62 21.7431 1030.58 24.2775C1029.54 26.8119 1028.43 29.3203 1027.26 31.8029C1026.1 34.2854 1024.87 36.7392 1023.58 39.1641C1022.29 41.5891 1020.94 43.9825 1019.53 46.3443C1018.12 48.706 1016.65 51.0331 1015.12 53.3258C1013.6 55.6187 1012.01 57.8745 1010.37 60.0933C1008.73 62.312 1007.04 64.4911 1005.29 66.6303C1003.54 68.7697 1001.74 70.8668 999.886 72.9216C998.033 74.9766 996.129 76.9867 994.174 78.9521C992.22 80.9176 990.217 82.8364 988.167 84.7082C986.116 86.5801 984.02 88.4028 981.878 90.1764C979.736 91.9496 977.551 93.6718 975.323 95.343C973.095 97.0141 970.826 98.632 968.517 100.197C966.208 101.762 963.861 103.271 961.476 104.726C959.091 106.181 956.671 107.579 954.216 108.92C951.762 110.262 949.275 111.545 946.756 112.77C944.237 113.994 941.689 115.159 939.111 116.265C936.533 117.37 933.93 118.414 931.3 119.397C928.671 120.381 926.018 121.302 923.342 122.161C920.666 123.02 917.97 123.816 915.254 124.548C912.539 125.281 909.807 125.949 907.058 126.554C904.308 127.158 901.546 127.698 898.769 128.173C895.993 128.648 893.207 129.058 890.41 129.402C887.614 129.747 884.81 130.026 881.999 130.238C879.189 130.451 876.374 130.599 873.556 130.679C870.739 130.761 867.92 130.776 865.102 130.725C862.283 130.673 859.467 130.556 856.654 130.373C853.842 130.19 851.035 129.942 848.235 129.627C845.434 129.312 842.644 128.932 839.862 128.487C837.081 128.041 834.312 127.531 831.557 126.956C828.801 126.381 826.061 125.741 823.338 125.038C820.614 124.334 817.91 123.567 815.225 122.737C816.138 120.157 817.116 117.599 818.157 115.065C819.199 112.531 820.303 110.022 821.471 107.54C822.638 105.057 823.867 102.604 825.157 100.179C826.447 97.7536 827.797 95.3603 829.207 92.9986C830.617 90.6369 832.086 88.3096 833.613 86.0167C835.139 83.7239 836.722 81.4681 838.362 79.2494C840.002 77.0308 841.696 74.8518 843.445 72.7125C845.193 70.5732 846.995 68.476 848.849 66.4212C850.702 64.3663 852.607 62.3562 854.561 60.3906C856.516 58.4249 858.518 56.5063 860.569 54.6345C862.619 52.7627 864.715 50.9401 866.857 49.1666C868.999 47.393 871.184 45.6706 873.412 43.9997C875.641 42.3285 877.909 40.7106 880.218 39.1459C882.528 37.581 884.875 36.0713 887.259 34.6166C889.644 33.162 892.064 31.7639 894.519 30.4225C896.974 29.081 899.461 27.7979 901.98 26.5731C904.499 25.3484 907.047 24.1834 909.624 23.0782C912.202 21.9728 914.805 20.9285 917.435 19.9453C920.065 18.9619 922.718 18.0406 925.393 17.1818C928.069 16.3229 930.765 15.5271 933.481 14.7945C936.196 14.0618 938.929 13.3933 941.678 12.7889C944.427 12.1845 947.189 11.6447 949.966 11.1696C952.742 10.6945 955.528 10.2848 958.325 9.94062C961.122 9.59613 963.925 9.31739 966.736 9.10448C969.546 8.8914 972.361 8.74438 975.179 8.66344C977.997 8.58223 980.815 8.56717 983.634 8.6182C986.453 8.66923 989.268 8.78622 992.081 8.96922C994.894 9.15245 997.7 9.40129 1000.5 9.71587C1003.3 10.0304 1006.09 10.4104 1008.87 10.8559C1011.65 11.3013 1014.42 11.8116 1017.18 12.3868C1019.93 12.962 1022.67 13.6014 1025.4 14.3049C1028.12 15.0085 1030.83 15.7754 1033.51 16.6059Z" fill="url(#paint2_linear_14_1193)"/>
<path fill-rule="evenodd" clip-rule="evenodd" d="M729.718 428.086C731.421 435.819 734.56 443.133 739.135 450.028C743.975 457.322 750.072 463.597 757.425 468.853C758.244 469.438 759.033 470.063 759.791 470.726C760.549 471.389 761.272 472.087 761.962 472.821C762.651 473.556 763.303 474.322 763.917 475.12C764.531 475.919 765.105 476.745 765.638 477.6C766.171 478.454 766.661 479.333 767.108 480.236C767.555 481.139 767.957 482.062 768.313 483.004C768.67 483.946 768.979 484.904 769.242 485.877C769.505 486.85 769.719 487.833 769.885 488.827C770.051 489.821 770.168 490.82 770.236 491.826C770.304 492.831 770.323 493.837 770.292 494.844C770.261 495.851 770.181 496.854 770.052 497.853C769.923 498.853 769.746 499.843 769.519 500.825C769.293 501.806 769.019 502.774 768.697 503.729C768.376 504.684 768.009 505.62 767.596 506.539C767.182 507.457 766.725 508.353 766.224 509.227C765.723 510.1 765.18 510.946 764.596 511.766C764.011 512.586 763.388 513.376 762.727 514.135C762.065 514.893 761.368 515.618 760.635 516.308C759.902 516.998 759.137 517.65 758.34 518.265C757.544 518.879 756.719 519.454 755.865 519.987C755.012 520.521 754.135 521.011 753.233 521.458C752.332 521.905 751.411 522.307 750.47 522.663C749.529 523.02 748.573 523.33 747.602 523.592C746.63 523.854 745.648 524.069 744.656 524.235C743.664 524.4 742.666 524.517 741.662 524.584C740.658 524.652 739.653 524.67 738.647 524.639C737.642 524.608 736.64 524.527 735.642 524.397C734.644 524.268 733.655 524.089 732.675 523.862C731.695 523.635 730.728 523.36 729.774 523.038C728.821 522.716 727.886 522.348 726.968 521.933C726.051 521.519 725.156 521.061 724.284 520.558C723.411 520.056 722.565 519.512 721.746 518.927C708.247 509.277 696.987 497.656 687.967 484.063C679.157 470.786 673.075 456.539 669.721 441.322L669.719 441.314C669.488 440.265 669.313 439.208 669.192 438.141C669.072 437.074 669.007 436.004 668.999 434.93C668.99 433.857 669.038 432.786 669.141 431.717C669.245 430.649 669.403 429.589 669.618 428.537C669.832 427.485 670.101 426.447 670.423 425.424C670.746 424.4 671.121 423.396 671.549 422.412C671.977 421.428 672.455 420.469 672.983 419.535C673.511 418.601 674.086 417.697 674.708 416.823C675.293 416.003 675.916 415.214 676.577 414.455C677.239 413.696 677.936 412.972 678.669 412.282C679.402 411.592 680.167 410.94 680.964 410.325C681.761 409.71 682.586 409.136 683.439 408.603C684.292 408.069 685.17 407.579 686.071 407.132C686.972 406.684 687.894 406.283 688.834 405.926C689.775 405.57 690.731 405.26 691.703 404.998C692.674 404.735 693.656 404.521 694.648 404.355C695.64 404.189 696.639 404.073 697.642 404.005C698.646 403.938 699.651 403.919 700.657 403.951C701.662 403.982 702.664 404.062 703.662 404.192C704.66 404.322 705.649 404.5 706.629 404.728C707.609 404.955 708.576 405.229 709.53 405.552C710.483 405.874 711.419 406.242 712.336 406.656C713.253 407.071 714.148 407.529 715.021 408.031C715.893 408.534 716.739 409.077 717.558 409.663C719.092 410.76 720.514 411.987 721.822 413.346C723.131 414.704 724.305 416.171 725.344 417.745C726.384 419.32 727.271 420.976 728.006 422.714C728.741 424.453 729.311 426.243 729.718 428.086Z" fill="url(#paint3_linear_14_1193)"/>
</g>
</g>
</g>
<defs>
<linearGradient id="paint0_linear_14_1193" x1="349.176" y1="162.295" x2="757.367" y2="741.691" gradientUnits="userSpaceOnUse">
<stop stop-color="#FF5900"/>
<stop offset="0.432306" stop-color="#FD9A2F"/>
<stop offset="1" stop-color="#FFAA00"/>
</linearGradient>
<linearGradient id="paint1_linear_14_1193" x1="679.519" y1="241.424" x2="796.609" y2="637.12" gradientUnits="userSpaceOnUse">
<stop stop-color="#FE7C19"/>
<stop offset="1" stop-color="#FEA315"/>
</linearGradient>
<linearGradient id="paint2_linear_14_1193" x1="901.98" y1="26.5732" x2="944.437" y2="113.897" gradientUnits="userSpaceOnUse">
<stop stop-color="#FF5900"/>
<stop offset="1" stop-color="#FEA015"/>
</linearGradient>
<linearGradient id="paint3_linear_14_1193" x1="711.086" y1="414.076" x2="737.116" y2="483.56" gradientUnits="userSpaceOnUse">
<stop stop-color="#FE7C19"/>
<stop offset="1" stop-color="#FEA315"/>
</linearGradient>
<clipPath id="clip0_14_1193">
<rect width="1200" height="676" fill="white"/>
</clipPath>
<clipPath id="clip1_14_1193">
<rect width="958" height="686" fill="white" transform="translate(122)"/>
</clipPath>
</defs>
</svg>
