<?xml version="1.0" encoding="UTF-8" standalone="no"?>
<!DOCTYPE svg PUBLIC "-//W3C//DTD SVG 1.1//EN" "http://www.w3.org/Graphics/SVG/1.1/DTD/svg11.dtd">
<svg version="1.1" xmlns="http://www.w3.org/2000/svg" xmlns:dc="http://purl.org/dc/elements/1.1/" xmlns:xl="http://www.w3.org/1999/xlink" viewBox="-12913 396 323.68 365.00027" width="323.68" height="365.00027">
  <defs/>
  <g id="版面___13" stroke="none" stroke-opacity="1" fill-opacity="1" stroke-dasharray="none" fill="none">
    <title>版面 13</title>
    <rect fill="white" x="-12913" y="396" width="323.68" height="365.00027"/>
    <g id="版面___13_图层_1">
      <title>图层 1</title>
      <g id="Graphic_10">
        <path d="M -12675.858 550.093 L -12735.427 588.574 L -12738.847 656.984 C -12738.847 663.878 -12744.436 669.468 -12751.33 669.468 C -12758.226 669.468 -12763.814 663.878 -12763.814 656.984 L -12767.265 587.979 L -12825.912 550.093 C -12831.883 546.645 -12833.928 539.011 -12830.482 533.04 C -12827.034 527.07 -12819.4 525.023 -12813.428 528.471 L -12750.885 560.528 L -12688.341 528.471 C -12682.37 525.023 -12674.736 527.07 -12671.288 533.04 C -12667.841 539.011 -12669.887 546.645 -12675.858 550.093 Z M -12600.019 480.3089 L -12740.014 398.8666 C -12746.635 395.04447 -12754.792 395.04447 -12761.414 398.8666 L -12902.3 480.3089 C -12908.922 484.131 -12913 491.1969 -12913 498.842 L -12913 657.267 C -12913 664.912 -12908.922 671.977 -12902.3 675.8 L -12761.414 758.133 C -12754.792 761.956 -12746.635 761.956 -12740.014 758.133 L -12600.019 675.8 C -12593.398 671.977 -12589.32 664.912 -12589.32 657.267 L -12589.32 498.842 C -12589.32 491.1969 -12593.398 484.131 -12600.019 480.3089 Z" fill="#1665f5"/>
      </g>
    </g>
  </g>
</svg>
