<?xml version="1.0" encoding="UTF-8" standalone="no"?>
<!DOCTYPE svg PUBLIC "-//W3C//DTD SVG 1.1//EN" "http://www.w3.org/Graphics/SVG/1.1/DTD/svg11.dtd">
<svg version="1.1" xmlns:xl="http://www.w3.org/1999/xlink" xmlns="http://www.w3.org/2000/svg" xmlns:dc="http://purl.org/dc/elements/1.1/" viewBox="0 0 64 66.9185" width="64" height="66.9185">
  <defs/>
  <g id="版面___38" fill-opacity="1" stroke-opacity="1" stroke="none" fill="none" stroke-dasharray="none">
    <title>版面 38</title>
    <g id="版面___38_图层_1">
      <title>图层 1</title>
      <g id="Group_7">
        <g id="Graphic_6">
          <path d="M 41.73468 3.3826873 L 40.762076 3.3826873 C 38.75175 3.5567848 36.77446 4.0036103 34.884617 4.7108684 C 32.970782 5.2337744 19.772645 -4.732813 7.358867 2.8702395 C 3.396222 5.303545 .74167495 9.393575 .13294766 14.003673 C -.47577963 18.61377 1.0261854 23.252636 4.2214333 26.631086 C 6.465416 29.10385 7.50268 32.44147 7.0555816 35.750566 C 6.1248096 42.6843 10.193015 47.97611 16.467882 47.97611 C 19.260135 48.03423 22.035173 47.525475 24.62521 46.480597 C 25.495568 46.111846 26.115597 45.322 26.267133 44.388973 C 26.472987 43.136663 25.989644 41.87038 25.0017 41.07375 C 19.35432 36.29439 17.492777 30.354177 19.772645 24.340758 C 20.522422 22.18582 21.97329 20.344617 23.893141 19.111699 C 24.653993 18.640937 25.52933 18.38774 26.424005 18.37963 C 28.39932 18.4576 30.187524 19.57026 31.130155 21.307904 C 32.670313 23.881172 33.153838 26.950992 32.47925 29.873103 C 32.031986 31.90802 31.37665 33.891553 30.523584 35.7924 C 29.676477 37.6644 30.868702 38.39647 32.20734 38.699756 C 33.586764 38.974436 35.01586 38.851113 36.327836 38.34418 C 41.264065 36.61859 46.99511 37.884023 48.87757 46.940754 C 49.620096 51.2495 48.678866 55.74649 44.38058 57.242 C 44.38058 57.242 36.014093 60.18073 37.68739 46.02044 C 37.697793 45.832337 37.697793 45.643803 37.68739 45.4557 C 37.655553 45.281797 37.530895 45.13937 37.36274 45.08477 C 37.194588 45.03018 37.010038 45.072214 36.882116 45.19425 C 36.085665 45.76409 35.102772 46.01075 34.131633 45.884484 C 33.608026 45.91143 33.17333 46.29831 33.08582 46.815256 C 32.82378 48.20785 32.08406 49.465376 30.9942 50.37102 L 30.408545 50.883465 C 30.123088 51.13019 29.978207 51.50218 30.021595 51.876986 C 32.196882 69.54075 45.907467 66.75889 45.907467 66.75889 C 53.65693 66.26736 64 57.492996 64 25.627107 C 63.94771 14.614707 54.002045 3.3826873 41.73468 3.3826873 Z M 52.611116 30.28097 C 51.161377 30.28097 49.98613 29.105723 49.98613 27.655982 C 49.98613 26.20624 51.161377 25.030994 52.611116 25.030994 C 54.060856 25.030994 55.2361 26.20624 55.2361 27.655982 C 55.2361 29.105723 54.060856 30.28097 52.611116 30.28097 Z" fill="#1652b5"/>
        </g>
        <g id="Graphic_5">
          <path d="M 36.819368 42.809797 C 35.875793 41.16253 34.024525 40.255535 32.14459 40.51947 C 30.276303 40.66253 28.611037 39.347605 28.316923 37.497072 C 27.971805 35.133537 29.007158 35.876064 30.575875 29.350197 C 31.13926 26.906025 30.734477 24.338648 29.4464 22.186386 C 28.400588 20.471254 26.50767 19.60323 24.823913 20.649042 C 23.25828 21.671013 22.080076 23.187952 21.477318 24.957787 C 18.956913 31.66144 22.763665 36.712713 26.17301 39.599154 C 27.676372 40.88652 28.357993 42.89129 27.95089 44.828214 C 27.647604 46.39693 28.50517 47.62053 29.624187 48.927797 C 31.506647 47.30679 31.53802 45.1315 30.5445 42.977127 L 30.753663 42.79934 C 32.496937 44.296537 35.07094 44.300975 36.819368 42.809797 Z M 26.758664 25.78398 C 26.48618 25.94649 26.159793 25.99261 25.852947 25.911965 C 25.546102 25.83132 25.28457 25.630682 25.1272 25.355196 C 24.795595 24.786516 24.987657 24.056698 25.55623 23.724912 C 26.124802 23.393126 26.85468 23.584954 27.18665 24.15342 C 27.518617 24.721887 27.327024 25.451828 26.758664 25.78398 Z" fill="#3bf"/>
        </g>
      </g>
    </g>
  </g>
</svg>
