<?xml version="1.0" encoding="UTF-8" standalone="no"?>
<!DOCTYPE svg PUBLIC "-//W3C//DTD SVG 1.1//EN" "http://www.w3.org/Graphics/SVG/1.1/DTD/svg11.dtd">
<svg xmlns="http://www.w3.org/2000/svg" xmlns:dc="http://purl.org/dc/elements/1.1/" version="1.1" xmlns:xl="http://www.w3.org/1999/xlink" viewBox="-513 -435 1281 1281" width="1281" height="1281">
  <defs>
    <filter id="Shadow" filterUnits="userSpaceOnUse" x="-641.1" y="-563.1">
      <feGaussianBlur in="SourceAlpha" result="blur" stdDeviation="1.744"/>
      <feOffset in="blur" result="offset" dx="0" dy="2"/>
      <feFlood flood-color="black" flood-opacity=".5" result="flood"/>
      <feComposite in="flood" in2="offset" operator="in"/>
    </filter>
    <marker orient="auto" overflow="visible" markerUnits="strokeWidth" id="FilledArrow_Marker" stroke-linejoin="miter" stroke-miterlimit="10" viewBox="-1 -3 5 6" markerWidth="5" markerHeight="6" color="#a5a5a5">
      <g>
        <path d="M 2.88 0 L 0 -1.08 L 0 1.08 Z" fill="currentColor" stroke="currentColor" stroke-width="1"/>
      </g>
    </marker>
    <marker orient="auto" overflow="visible" markerUnits="strokeWidth" id="FilledArrow_Marker_2" stroke-linejoin="miter" stroke-miterlimit="10" viewBox="-4 -3 5 6" markerWidth="5" markerHeight="6" color="#a5a5a5">
      <g>
        <path d="M -2.88 0 L 0 1.08 L 0 -1.08 Z" fill="currentColor" stroke="currentColor" stroke-width="1"/>
      </g>
    </marker>
  </defs>
  <g id="版面____-3" stroke="none" fill="none" stroke-opacity="1" stroke-dasharray="none" fill-opacity="1">
    <title>完整实体图</title>
    <g id="版面____-3_图层_1">
      <title>图层 1</title>
      <g id="Graphic_14_shadow" filter="url(#Shadow)">
        <path d="M 15 0 L 240.1181 0 C 248.40238 5072653e-22 255.1181 6.715729 255.1181 15 L 255.1181 55.86614 C 255.1181 64.15041 248.40238 70.86614 240.1181 70.86614 L 15 70.86614 C 6.715729 70.86614 10145306e-22 64.15041 0 55.86614 L 17763568e-22 15 C 27908875e-22 6.715729 6.715729 -10145306e-22 15 0 Z" fill="#88ccb1"/>
        <path d="M 15 0 L 240.1181 0 C 248.40238 5072653e-22 255.1181 6.715729 255.1181 15 L 255.1181 55.86614 C 255.1181 64.15041 248.40238 70.86614 240.1181 70.86614 L 15 70.86614 C 6.715729 70.86614 10145306e-22 64.15041 0 55.86614 L 17763568e-22 15 C 27908875e-22 6.715729 6.715729 -10145306e-22 15 0 Z" stroke="black" stroke-linecap="round" stroke-linejoin="round" stroke-width="0"/>
      </g>
      <g id="Graphic_11_shadow" filter="url(#Shadow)">
        <path d="M 15 0 L 240.1181 0 C 248.40238 5072653e-22 255.1181 6.715729 255.1181 15 L 255.1181 55.86614 C 255.1181 64.15041 248.40238 70.86614 240.1181 70.86614 L 15 70.86614 C 6.715729 70.86614 10145306e-22 64.15041 0 55.86614 L 17763568e-22 15 C 27908875e-22 6.715729 6.715729 -10145306e-22 15 0 Z" fill="#f7c574"/>
        <path d="M 15 0 L 240.1181 0 C 248.40238 5072653e-22 255.1181 6.715729 255.1181 15 L 255.1181 55.86614 C 255.1181 64.15041 248.40238 70.86614 240.1181 70.86614 L 15 70.86614 C 6.715729 70.86614 10145306e-22 64.15041 0 55.86614 L 17763568e-22 15 C 27908875e-22 6.715729 6.715729 -10145306e-22 15 0 Z" stroke="black" stroke-linecap="round" stroke-linejoin="round" stroke-width="0"/>
      </g>
      <g id="Graphic_8_shadow" filter="url(#Shadow)">
        <path d="M -438.5433 170.07874 L -213.4252 170.07874 C -205.14092 170.07874 -198.4252 176.79447 -198.4252 185.07874 L -198.4252 225.94488 C -198.4252 234.22915 -205.14092 240.94488 -213.4252 240.94488 L -438.5433 240.94488 C -446.8276 240.94488 -453.5433 234.22915 -453.5433 225.94488 L -453.5433 185.07874 C -453.5433 176.79447 -446.8276 170.07874 -438.5433 170.07874 Z" fill="#5cc49f" fill-opacity=".29817978"/>
        <path d="M -438.5433 170.07874 L -213.4252 170.07874 C -205.14092 170.07874 -198.4252 176.79447 -198.4252 185.07874 L -198.4252 225.94488 C -198.4252 234.22915 -205.14092 240.94488 -213.4252 240.94488 L -438.5433 240.94488 C -446.8276 240.94488 -453.5433 234.22915 -453.5433 225.94488 L -453.5433 185.07874 C -453.5433 176.79447 -446.8276 170.07874 -438.5433 170.07874 Z" stroke="black" stroke-linecap="round" stroke-linejoin="round" stroke-width="0"/>
      </g>
      <g id="Graphic_5_shadow" filter="url(#Shadow)">
        <path d="M 468.5433 170.07874 L 693.6614 170.07874 C 701.9457 170.07874 708.6614 176.79447 708.6614 185.07874 L 708.6614 225.94488 C 708.6614 234.22915 701.9457 240.94488 693.6614 240.94488 L 468.5433 240.94488 C 460.25903 240.94488 453.5433 234.22915 453.5433 225.94488 L 453.5433 185.07874 C 453.5433 176.79447 460.25903 170.07874 468.5433 170.07874 Z" fill="#959ede"/>
        <path d="M 468.5433 170.07874 L 693.6614 170.07874 C 701.9457 170.07874 708.6614 176.79447 708.6614 185.07874 L 708.6614 225.94488 C 708.6614 234.22915 701.9457 240.94488 693.6614 240.94488 L 468.5433 240.94488 C 460.25903 240.94488 453.5433 234.22915 453.5433 225.94488 L 453.5433 185.07874 C 453.5433 176.79447 460.25903 170.07874 468.5433 170.07874 Z" stroke="black" stroke-linecap="round" stroke-linejoin="round" stroke-width="0"/>
      </g>
      <g id="Graphic_42_shadow" filter="url(#Shadow)">
        <path d="M 15.089986 680.31496 L 240.2081 680.31496 C 248.49237 680.31496 255.2081 687.0307 255.2081 695.31496 L 255.2081 736.1811 C 255.2081 744.4654 248.49237 751.1811 240.2081 751.1811 L 15.089986 751.1811 C 6.805715 751.1811 .08998615 744.4654 .08998615 736.1811 L .08998615 695.31496 C .08998615 687.0307 6.805715 680.31496 15.089986 680.31496 Z" fill="#84baf9"/>
        <path d="M 15.089986 680.31496 L 240.2081 680.31496 C 248.49237 680.31496 255.2081 687.0307 255.2081 695.31496 L 255.2081 736.1811 C 255.2081 744.4654 248.49237 751.1811 240.2081 751.1811 L 15.089986 751.1811 C 6.805715 751.1811 .08998615 744.4654 .08998615 736.1811 L .08998615 695.31496 C .08998615 687.0307 6.805715 680.31496 15.089986 680.31496 Z" stroke="black" stroke-linecap="round" stroke-linejoin="round" stroke-width="0"/>
      </g>
      <g id="Graphic_30_shadow" filter="url(#Shadow)">
        <path d="M -438.5433 510.2362 L -213.4252 510.2362 C -205.14092 510.2362 -198.4252 516.95195 -198.4252 525.2362 L -198.4252 566.10236 C -198.4252 574.3866 -205.14092 581.10236 -213.4252 581.10236 L -438.5433 581.10236 C -446.8276 581.10236 -453.5433 574.3866 -453.5433 566.10236 L -453.5433 525.2362 C -453.5433 516.95195 -446.8276 510.2362 -438.5433 510.2362 Z" fill="#6891ad"/>
        <path d="M -438.5433 510.2362 L -213.4252 510.2362 C -205.14092 510.2362 -198.4252 516.95195 -198.4252 525.2362 L -198.4252 566.10236 C -198.4252 574.3866 -205.14092 581.10236 -213.4252 581.10236 L -438.5433 581.10236 C -446.8276 581.10236 -453.5433 574.3866 -453.5433 566.10236 L -453.5433 525.2362 C -453.5433 516.95195 -446.8276 510.2362 -438.5433 510.2362 Z" stroke="black" stroke-linecap="round" stroke-linejoin="round" stroke-width="0"/>
      </g>
      <g id="Graphic_45_shadow" filter="url(#Shadow)">
        <path d="M 15 340.15748 L 240.1181 340.15748 C 248.40238 340.15748 255.1181 346.8732 255.1181 355.15748 L 255.1181 396.0236 C 255.1181 404.3079 248.40238 411.0236 240.1181 411.0236 L 15 411.0236 C 6.715729 411.0236 15225385e-21 404.3079 14210855e-21 396.0236 L 15987212e-21 355.15748 C 17001742e-21 346.8732 6.715729 340.15748 15 340.15748 Z" fill="#88ccb1"/>
        <path d="M 15 340.15748 L 240.1181 340.15748 C 248.40238 340.15748 255.1181 346.8732 255.1181 355.15748 L 255.1181 396.0236 C 255.1181 404.3079 248.40238 411.0236 240.1181 411.0236 L 15 411.0236 C 6.715729 411.0236 15225385e-21 404.3079 14210855e-21 396.0236 L 15987212e-21 355.15748 C 17001742e-21 346.8732 6.715729 340.15748 15 340.15748 Z" stroke="black" stroke-linecap="round" stroke-linejoin="round" stroke-width="0"/>
      </g>
      <g id="Graphic_76_shadow" filter="url(#Shadow)">
        <path d="M 468.5433 510.2362 L 693.6614 510.2362 C 701.9457 510.2362 708.6614 516.95195 708.6614 525.2362 L 708.6614 566.10236 C 708.6614 574.3866 701.9457 581.10236 693.6614 581.10236 L 468.5433 581.10236 C 460.25903 581.10236 453.5433 574.3866 453.5433 566.10236 L 453.5433 525.2362 C 453.5433 516.95195 460.25903 510.2362 468.5433 510.2362 Z" fill="#6891ad" fill-opacity=".632099"/>
        <path d="M 468.5433 510.2362 L 693.6614 510.2362 C 701.9457 510.2362 708.6614 516.95195 708.6614 525.2362 L 708.6614 566.10236 C 708.6614 574.3866 701.9457 581.10236 693.6614 581.10236 L 468.5433 581.10236 C 460.25903 581.10236 453.5433 574.3866 453.5433 566.10236 L 453.5433 525.2362 C 453.5433 516.95195 460.25903 510.2362 468.5433 510.2362 Z" stroke="black" stroke-linecap="round" stroke-linejoin="round" stroke-width="0"/>
      </g>
      <g id="Graphic_150_shadow" filter="url(#Shadow)">
        <path d="M 15.278265 -340.1575 L 240.39637 -340.1575 C 248.68064 -340.1575 255.39637 -333.44175 255.39637 -325.1575 L 255.39637 -284.29134 C 255.39637 -276.00707 248.68064 -269.29134 240.39637 -269.29134 L 15.278265 -269.29134 C 6.993994 -269.29134 .278265 -276.00707 .278265 -284.29134 L .278265 -325.1575 C .278265 -333.44175 6.993994 -340.1575 15.278265 -340.1575 Z" fill="#88ccb1"/>
        <path d="M 15.278265 -340.1575 L 240.39637 -340.1575 C 248.68064 -340.1575 255.39637 -333.44175 255.39637 -325.1575 L 255.39637 -284.29134 C 255.39637 -276.00707 248.68064 -269.29134 240.39637 -269.29134 L 15.278265 -269.29134 C 6.993994 -269.29134 .278265 -276.00707 .278265 -284.29134 L .278265 -325.1575 C .278265 -333.44175 6.993994 -340.1575 15.278265 -340.1575 Z" stroke="black" stroke-linecap="round" stroke-linejoin="round" stroke-width="0"/>
      </g>
      <g id="Graphic_147_shadow" filter="url(#Shadow)">
        <path d="M 15.278265 -340.1575 L 240.39637 -340.1575 C 248.68064 -340.1575 255.39637 -333.44175 255.39637 -325.1575 L 255.39637 -284.29134 C 255.39637 -276.00707 248.68064 -269.29134 240.39637 -269.29134 L 15.278265 -269.29134 C 6.993994 -269.29134 .278265 -276.00707 .278265 -284.29134 L .278265 -325.1575 C .278265 -333.44175 6.993994 -340.1575 15.278265 -340.1575 Z" fill="#ff7c7b"/>
        <path d="M 15.278265 -340.1575 L 240.39637 -340.1575 C 248.68064 -340.1575 255.39637 -333.44175 255.39637 -325.1575 L 255.39637 -284.29134 C 255.39637 -276.00707 248.68064 -269.29134 240.39637 -269.29134 L 15.278265 -269.29134 C 6.993994 -269.29134 .278265 -276.00707 .278265 -284.29134 L .278265 -325.1575 C .278265 -333.44175 6.993994 -340.1575 15.278265 -340.1575 Z" stroke="black" stroke-linecap="round" stroke-linejoin="round" stroke-width="0"/>
      </g>
      <g id="Graphic_144_shadow" filter="url(#Shadow)">
        <path d="M -438.26504 -170.07874 L -213.14693 -170.07874 C -204.86266 -170.07874 -198.14693 -163.36302 -198.14693 -155.07874 L -198.14693 -114.2126 C -198.14693 -105.92833 -204.86266 -99.2126 -213.14693 -99.2126 L -438.26504 -99.2126 C -446.5493 -99.2126 -453.26504 -105.92833 -453.26504 -114.2126 L -453.26504 -155.07874 C -453.26504 -163.36302 -446.5493 -170.07874 -438.26504 -170.07874 Z" fill="#47678e"/>
        <path d="M -438.26504 -170.07874 L -213.14693 -170.07874 C -204.86266 -170.07874 -198.14693 -163.36302 -198.14693 -155.07874 L -198.14693 -114.2126 C -198.14693 -105.92833 -204.86266 -99.2126 -213.14693 -99.2126 L -438.26504 -99.2126 C -446.5493 -99.2126 -453.26504 -105.92833 -453.26504 -114.2126 L -453.26504 -155.07874 C -453.26504 -163.36302 -446.5493 -170.07874 -438.26504 -170.07874 Z" stroke="black" stroke-linecap="round" stroke-linejoin="round" stroke-width="0"/>
      </g>
      <g id="Graphic_141_shadow" filter="url(#Shadow)">
        <path d="M 468.82157 -170.07874 L 693.9397 -170.07874 C 702.22395 -170.07874 708.9397 -163.36302 708.9397 -155.07874 L 708.9397 -114.2126 C 708.9397 -105.92833 702.22395 -99.2126 693.9397 -99.2126 L 468.82157 -99.2126 C 460.5373 -99.2126 453.82157 -105.92833 453.82157 -114.2126 L 453.82157 -155.07874 C 453.82157 -163.36302 460.5373 -170.07874 468.82157 -170.07874 Z" fill="#ff6a29"/>
        <path d="M 468.82157 -170.07874 L 693.9397 -170.07874 C 702.22395 -170.07874 708.9397 -163.36302 708.9397 -155.07874 L 708.9397 -114.2126 C 708.9397 -105.92833 702.22395 -99.2126 693.9397 -99.2126 L 468.82157 -99.2126 C 460.5373 -99.2126 453.82157 -105.92833 453.82157 -114.2126 L 453.82157 -155.07874 C 453.82157 -163.36302 460.5373 -170.07874 468.82157 -170.07874 Z" stroke="black" stroke-linecap="round" stroke-linejoin="round" stroke-width="0"/>
      </g>
      <g id="Graphic_151"/>
      <g id="Group_12">
        <g id="Graphic_14">
          <path d="M 15 0 L 240.1181 0 C 248.40238 5072653e-22 255.1181 6.715729 255.1181 15 L 255.1181 55.86614 C 255.1181 64.15041 248.40238 70.86614 240.1181 70.86614 L 15 70.86614 C 6.715729 70.86614 10145306e-22 64.15041 0 55.86614 L 17763568e-22 15 C 27908875e-22 6.715729 6.715729 -10145306e-22 15 0 Z" fill="#88ccb1"/>
          <path d="M 15 0 L 240.1181 0 C 248.40238 5072653e-22 255.1181 6.715729 255.1181 15 L 255.1181 55.86614 C 255.1181 64.15041 248.40238 70.86614 240.1181 70.86614 L 15 70.86614 C 6.715729 70.86614 10145306e-22 64.15041 0 55.86614 L 17763568e-22 15 C 27908875e-22 6.715729 6.715729 -10145306e-22 15 0 Z" stroke="black" stroke-linecap="round" stroke-linejoin="round" stroke-width="0"/>
        </g>
        <g id="Graphic_13">
          <text transform="translate(89.1528 24.765102)" fill="white">
            <tspan font-family="Monaco" font-size="16" fill="white" x="0" y="16" xml:space="preserve">Instance</tspan>
          </text>
        </g>
      </g>
      <g id="Group_9">
        <g id="Graphic_11">
          <path d="M 15 0 L 240.1181 0 C 248.40238 5072653e-22 255.1181 6.715729 255.1181 15 L 255.1181 55.86614 C 255.1181 64.15041 248.40238 70.86614 240.1181 70.86614 L 15 70.86614 C 6.715729 70.86614 10145306e-22 64.15041 0 55.86614 L 17763568e-22 15 C 27908875e-22 6.715729 6.715729 -10145306e-22 15 0 Z" fill="#f7c574"/>
          <path d="M 15 0 L 240.1181 0 C 248.40238 5072653e-22 255.1181 6.715729 255.1181 15 L 255.1181 55.86614 C 255.1181 64.15041 248.40238 70.86614 240.1181 70.86614 L 15 70.86614 C 6.715729 70.86614 10145306e-22 64.15041 0 55.86614 L 17763568e-22 15 C 27908875e-22 6.715729 6.715729 -10145306e-22 15 0 Z" stroke="black" stroke-linecap="round" stroke-linejoin="round" stroke-width="0"/>
        </g>
        <g id="Graphic_10">
          <text transform="translate(93.95358 24.765102)" fill="white">
            <tspan font-family="Monaco" font-size="16" fill="white" x="0" y="16" xml:space="preserve">Cluster</tspan>
          </text>
        </g>
      </g>
      <g id="Group_6">
        <g id="Graphic_8">
          <path d="M -438.5433 170.07874 L -213.4252 170.07874 C -205.14092 170.07874 -198.4252 176.79447 -198.4252 185.07874 L -198.4252 225.94488 C -198.4252 234.22915 -205.14092 240.94488 -213.4252 240.94488 L -438.5433 240.94488 C -446.8276 240.94488 -453.5433 234.22915 -453.5433 225.94488 L -453.5433 185.07874 C -453.5433 176.79447 -446.8276 170.07874 -438.5433 170.07874 Z" fill="#5cc49f" fill-opacity=".29817978"/>
          <path d="M -438.5433 170.07874 L -213.4252 170.07874 C -205.14092 170.07874 -198.4252 176.79447 -198.4252 185.07874 L -198.4252 225.94488 C -198.4252 234.22915 -205.14092 240.94488 -213.4252 240.94488 L -438.5433 240.94488 C -446.8276 240.94488 -453.5433 234.22915 -453.5433 225.94488 L -453.5433 185.07874 C -453.5433 176.79447 -446.8276 170.07874 -438.5433 170.07874 Z" stroke="black" stroke-linecap="round" stroke-linejoin="round" stroke-width="0"/>
        </g>
        <g id="Graphic_7">
          <text transform="translate(-345.18738 194.84384)" fill="white">
            <tspan font-family="Monaco" font-size="16" fill="white" x="0" y="16" xml:space="preserve">Node</tspan>
          </text>
        </g>
      </g>
      <g id="Group_3">
        <g id="Graphic_5">
          <path d="M 468.5433 170.07874 L 693.6614 170.07874 C 701.9457 170.07874 708.6614 176.79447 708.6614 185.07874 L 708.6614 225.94488 C 708.6614 234.22915 701.9457 240.94488 693.6614 240.94488 L 468.5433 240.94488 C 460.25903 240.94488 453.5433 234.22915 453.5433 225.94488 L 453.5433 185.07874 C 453.5433 176.79447 460.25903 170.07874 468.5433 170.07874 Z" fill="#959ede"/>
          <path d="M 468.5433 170.07874 L 693.6614 170.07874 C 701.9457 170.07874 708.6614 176.79447 708.6614 185.07874 L 708.6614 225.94488 C 708.6614 234.22915 701.9457 240.94488 693.6614 240.94488 L 468.5433 240.94488 C 460.25903 240.94488 453.5433 234.22915 453.5433 225.94488 L 453.5433 185.07874 C 453.5433 176.79447 460.25903 170.07874 468.5433 170.07874 Z" stroke="black" stroke-linecap="round" stroke-linejoin="round" stroke-width="0"/>
        </g>
        <g id="Graphic_4">
          <text transform="translate(547.4969 194.84384)" fill="white">
            <tspan font-family="Monaco" font-size="16" fill="white" x="0" y="16" xml:space="preserve">Service</tspan>
          </text>
        </g>
      </g>
      <g id="Group_17">
        <g id="Graphic_15">
          <path d="M -325.98425 0 L -255.1181 35.43307 L -325.98425 70.86614 L -396.8504 35.43307 Z" fill="#929292"/>
          <path d="M -325.98425 0 L -255.1181 35.43307 L -325.98425 70.86614 L -396.8504 35.43307 Z" stroke="black" stroke-linecap="round" stroke-linejoin="round" stroke-width="0"/>
        </g>
        <g id="Graphic_16">
          <text transform="translate(-355.38904 25.848598)" fill="white">
            <tspan font-family="Monaco" font-size="14" fill="white" x="0" y="14" xml:space="preserve">contain</tspan>
          </text>
        </g>
      </g>
      <g id="Group_18">
        <g id="Graphic_20">
          <path d="M 581.10236 0 L 651.9685 35.43307 L 581.10236 70.86614 L 510.2362 35.43307 Z" fill="#929292"/>
          <path d="M 581.10236 0 L 651.9685 35.43307 L 581.10236 70.86614 L 510.2362 35.43307 Z" stroke="black" stroke-linecap="round" stroke-linejoin="round" stroke-width="0"/>
        </g>
        <g id="Graphic_19">
          <text transform="translate(555.89826 25.848598)" fill="white">
            <tspan font-family="Monaco" font-size="14" fill="white" x="0" y="14" xml:space="preserve">expose</tspan>
          </text>
        </g>
      </g>
      <g id="Group_21">
        <g id="Graphic_23">
          <path d="M -325.98425 340.15748 L -255.1181 375.59055 L -325.98425 411.0236 L -396.8504 375.59055 Z" fill="#929292"/>
          <path d="M -325.98425 340.15748 L -255.1181 375.59055 L -325.98425 411.0236 L -396.8504 375.59055 Z" stroke="black" stroke-linecap="round" stroke-linejoin="round" stroke-width="0"/>
        </g>
        <g id="Graphic_22">
          <text transform="translate(-351.18835 366.00608)" fill="white">
            <tspan font-family="Monaco" font-size="14" fill="white" x="0" y="14" xml:space="preserve">deploy</tspan>
          </text>
        </g>
      </g>
      <g id="Graphic_26">
        <text transform="translate(142.21808 81.99902)" fill="#ffb64c">
          <tspan font-family="Monaco" font-size="12" fill="#ffb64c" x="0" y="12" xml:space="preserve">pg-test</tspan>
        </text>
      </g>
      <g id="Group_40">
        <g id="Graphic_42">
          <path d="M 15.089986 680.31496 L 240.2081 680.31496 C 248.49237 680.31496 255.2081 687.0307 255.2081 695.31496 L 255.2081 736.1811 C 255.2081 744.4654 248.49237 751.1811 240.2081 751.1811 L 15.089986 751.1811 C 6.805715 751.1811 .08998615 744.4654 .08998615 736.1811 L .08998615 695.31496 C .08998615 687.0307 6.805715 680.31496 15.089986 680.31496 Z" fill="#84baf9"/>
          <path d="M 15.089986 680.31496 L 240.2081 680.31496 C 248.49237 680.31496 255.2081 687.0307 255.2081 695.31496 L 255.2081 736.1811 C 255.2081 744.4654 248.49237 751.1811 240.2081 751.1811 L 15.089986 751.1811 C 6.805715 751.1811 .08998615 744.4654 .08998615 736.1811 L .08998615 695.31496 C .08998615 687.0307 6.805715 680.31496 15.089986 680.31496 Z" stroke="black" stroke-linecap="round" stroke-linejoin="round" stroke-width="0"/>
        </g>
        <g id="Graphic_41">
          <text transform="translate(89.24279 705.0801)" fill="white">
            <tspan font-family="Monaco" font-size="16" fill="white" x="0" y="16" xml:space="preserve">Database</tspan>
          </text>
        </g>
      </g>
      <g id="Graphic_38"/>
      <g id="Graphic_37">
        <text transform="translate(142.60811 653.1801)" fill="#ffb64c">
          <tspan font-family="Monaco" font-size="12" fill="#ffb64c" x="0" y="12" xml:space="preserve">pg-test</tspan>
          <tspan font-family="Monaco" font-size="12" fill="black" y="12" xml:space="preserve">-</tspan>
          <tspan font-family="Monaco" font-size="12" fill="#5cc49f" y="12" xml:space="preserve">1.</tspan>
          <tspan font-family="Monaco" font-size="12" fill="#60acfd" y="12" xml:space="preserve">test</tspan>
        </text>
      </g>
      <g id="Graphic_36">
        <text transform="translate(142.51813 279.96063)" fill="#ffb64c">
          <tspan font-family="Monaco" font-size="12" fill="#ffb64c" x="0" y="12" xml:space="preserve">pg-test</tspan>
          <tspan font-family="Monaco" font-size="12" fill="black" y="12" xml:space="preserve">-</tspan>
          <tspan font-family="Monaco" font-size="12" fill="#5cc49f" y="12" xml:space="preserve">1</tspan>
          <tspan font-family="Monaco" font-size="12" fill="#ffb64c" x="0" y="28.001953" xml:space="preserve">pg-test</tspan>
          <tspan font-family="Monaco" font-size="12" fill="black" y="28.001953" xml:space="preserve">-</tspan>
          <tspan font-family="Monaco" font-size="12" fill="#5cc49f" y="28.001953" xml:space="preserve">2</tspan>
          <tspan font-family="Monaco" font-size="12" fill="#ffb64c" x="0" y="44.003906" xml:space="preserve">pg-test</tspan>
          <tspan font-family="Monaco" font-size="12" fill="black" y="44.003906" xml:space="preserve">-</tspan>
          <tspan font-family="Monaco" font-size="12" fill="#5cc49f" y="44.003906" xml:space="preserve">3</tspan>
        </text>
      </g>
      <g id="Graphic_34">
        <text transform="translate(595.6438 251.2907)" fill="#ffb64c">
          <tspan font-family="Monaco" font-size="12" fill="#ffb64c" x="0" y="12" xml:space="preserve">pg-test</tspan>
          <tspan font-family="Monaco" font-size="12" fill="black" y="12" xml:space="preserve">-</tspan>
          <tspan font-family="Monaco" font-size="12" fill="#808adc" y="12" xml:space="preserve">primary</tspan>
          <tspan font-family="Monaco" font-size="12" fill="#ffb64c" x="0" y="28.001953" xml:space="preserve">pg-test</tspan>
          <tspan font-family="Monaco" font-size="12" fill="black" y="28.001953" xml:space="preserve">-</tspan>
          <tspan font-family="Monaco" font-size="12" fill="#808adc" y="28.001953" xml:space="preserve">replica</tspan>
          <tspan font-family="Monaco" font-size="12" fill="#ffb64c" x="0" y="44.003906" xml:space="preserve">pg-test</tspan>
          <tspan font-family="Monaco" font-size="12" fill="black" y="44.003906" xml:space="preserve">-</tspan>
          <tspan font-family="Monaco" font-size="12" fill="#808adc" y="44.003906" xml:space="preserve">default</tspan>
          <tspan font-family="Monaco" font-size="12" fill="#ffb64c" x="0" y="60.00586" xml:space="preserve">pg-test</tspan>
          <tspan font-family="Monaco" font-size="12" fill="black" y="60.00586" xml:space="preserve">-</tspan>
          <tspan font-family="Monaco" font-size="12" fill="#808adc" y="60.00586" xml:space="preserve">offline</tspan>
        </text>
      </g>
      <g id="Group_28">
        <g id="Graphic_30">
          <path d="M -438.5433 510.2362 L -213.4252 510.2362 C -205.14092 510.2362 -198.4252 516.95195 -198.4252 525.2362 L -198.4252 566.10236 C -198.4252 574.3866 -205.14092 581.10236 -213.4252 581.10236 L -438.5433 581.10236 C -446.8276 581.10236 -453.5433 574.3866 -453.5433 566.10236 L -453.5433 525.2362 C -453.5433 516.95195 -446.8276 510.2362 -438.5433 510.2362 Z" fill="#6891ad"/>
          <path d="M -438.5433 510.2362 L -213.4252 510.2362 C -205.14092 510.2362 -198.4252 516.95195 -198.4252 525.2362 L -198.4252 566.10236 C -198.4252 574.3866 -205.14092 581.10236 -213.4252 581.10236 L -438.5433 581.10236 C -446.8276 581.10236 -453.5433 574.3866 -453.5433 566.10236 L -453.5433 525.2362 C -453.5433 516.95195 -446.8276 510.2362 -438.5433 510.2362 Z" stroke="black" stroke-linecap="round" stroke-linejoin="round" stroke-width="0"/>
        </g>
        <g id="Graphic_29">
          <text transform="translate(-349.98816 535.0013)" fill="white">
            <tspan font-family="Monaco" font-size="16" fill="white" x="0" y="16" xml:space="preserve">Table</tspan>
          </text>
        </g>
      </g>
      <g id="Graphic_27">
        <text transform="translate(458.5433 457.23036)" fill="#497fa0">
          <tspan font-family="Monaco" font-size="12" fill="#497fa0" x="0" y="12" xml:space="preserve">queryid  = 1078821737499742052</tspan>
          <tspan font-family="Monaco" font-size="12" fill="#497fa0" x="0" y="28.001953" xml:space="preserve">idxname  = pigsty.cluster_pkey</tspan>
          <tspan font-family="Monaco" font-size="12" fill="#497fa0" x="0" y="44.003906" xml:space="preserve">funcname = monitor.heartbeat</tspan>
        </text>
      </g>
      <g id="Group_43">
        <g id="Graphic_45">
          <path d="M 15 340.15748 L 240.1181 340.15748 C 248.40238 340.15748 255.1181 346.8732 255.1181 355.15748 L 255.1181 396.0236 C 255.1181 404.3079 248.40238 411.0236 240.1181 411.0236 L 15 411.0236 C 6.715729 411.0236 15225385e-21 404.3079 14210855e-21 396.0236 L 15987212e-21 355.15748 C 17001742e-21 346.8732 6.715729 340.15748 15 340.15748 Z" fill="#88ccb1"/>
          <path d="M 15 340.15748 L 240.1181 340.15748 C 248.40238 340.15748 255.1181 346.8732 255.1181 355.15748 L 255.1181 396.0236 C 255.1181 404.3079 248.40238 411.0236 240.1181 411.0236 L 15 411.0236 C 6.715729 411.0236 15225385e-21 404.3079 14210855e-21 396.0236 L 15987212e-21 355.15748 C 17001742e-21 346.8732 6.715729 340.15748 15 340.15748 Z" stroke="black" stroke-linecap="round" stroke-linejoin="round" stroke-width="0"/>
        </g>
        <g id="Graphic_44">
          <text transform="translate(89.1528 364.9226)" fill="white">
            <tspan font-family="Monaco" font-size="16" fill="white" x="0" y="16" xml:space="preserve">Instance</tspan>
          </text>
        </g>
      </g>
      <g id="Group_46">
        <g id="Graphic_48">
          <path d="M 581.10236 340.15748 L 651.9685 375.59055 L 581.10236 411.0236 L 510.2362 375.59055 Z" fill="#929292"/>
          <path d="M 581.10236 340.15748 L 651.9685 375.59055 L 581.10236 411.0236 L 510.2362 375.59055 Z" stroke="black" stroke-linecap="round" stroke-linejoin="round" stroke-width="0"/>
        </g>
        <g id="Graphic_47">
          <text transform="translate(560.09894 366.00608)" fill="white">
            <tspan font-family="Monaco" font-size="14" fill="white" x="0" y="14" xml:space="preserve">route</tspan>
          </text>
        </g>
      </g>
      <g id="Group_49">
        <g id="Graphic_51">
          <path d="M 127.55905 170.07874 L 198.4252 205.5118 L 127.55905 240.94488 L 56.69291 205.5118 Z" fill="#929292"/>
          <path d="M 127.55905 170.07874 L 198.4252 205.5118 L 127.55905 240.94488 L 56.69291 205.5118 Z" stroke="black" stroke-linecap="round" stroke-linejoin="round" stroke-width="0"/>
        </g>
        <g id="Graphic_50">
          <text transform="translate(98.24426 195.92734)" fill="white">
            <tspan font-family="Monaco" font-size="14" fill="white" x="0" y="14" xml:space="preserve">contain</tspan>
          </text>
        </g>
      </g>
      <g id="Line_52">
        <line x1="256.53544" y1="35.43307" x2="501.1762" y2="35.43307" marker-end="url(#FilledArrow_Marker)" stroke="#a5a5a5" stroke-linecap="round" stroke-linejoin="round" stroke-width="2"/>
      </g>
      <g id="Line_53">
        <line x1="581.10236" y1="70.86614" x2="581.10236" y2="161.01874" marker-end="url(#FilledArrow_Marker)" stroke="#a5a5a5" stroke-linecap="round" stroke-linejoin="round" stroke-width="2"/>
      </g>
      <g id="Line_54">
        <line x1="581.10236" y1="240.94488" x2="581.10236" y2="331.09748" marker-end="url(#FilledArrow_Marker)" stroke="#a5a5a5" stroke-linecap="round" stroke-linejoin="round" stroke-width="2"/>
      </g>
      <g id="Line_55">
        <line x1="-325.98425" y1="240.94488" x2="-325.98425" y2="331.09748" marker-end="url(#FilledArrow_Marker)" stroke="#a5a5a5" stroke-linecap="round" stroke-linejoin="round" stroke-width="2"/>
      </g>
      <g id="Line_56">
        <line x1="-325.98425" y1="70.86614" x2="-325.98425" y2="161.01874" marker-end="url(#FilledArrow_Marker)" stroke="#a5a5a5" stroke-linecap="round" stroke-linejoin="round" stroke-width="2"/>
      </g>
      <g id="Line_57">
        <line x1="-246.0581" y1="35.43307" x2="-2822589e-20" y2="35.43307" marker-start="url(#FilledArrow_Marker_2)" stroke="#a5a5a5" stroke-linecap="round" stroke-linejoin="round" stroke-width="2"/>
      </g>
      <g id="Line_58">
        <line x1="-259.375" y1="378.64583" x2="-9.059718" y2="376.6693" marker-end="url(#FilledArrow_Marker)" stroke="#a5a5a5" stroke-linecap="round" stroke-linejoin="round" stroke-width="2"/>
      </g>
      <g id="Line_59">
        <line x1="264.1781" y1="375.59055" x2="510.2362" y2="375.59055" marker-start="url(#FilledArrow_Marker_2)" stroke="#a5a5a5" stroke-linecap="round" stroke-linejoin="round" stroke-width="2"/>
      </g>
      <g id="Line_60">
        <line x1="127.55905" y1="70.86614" x2="127.55905" y2="161.01874" marker-end="url(#FilledArrow_Marker)" stroke="#a5a5a5" stroke-linecap="round" stroke-linejoin="round" stroke-width="2"/>
      </g>
      <g id="Line_61">
        <line x1="127.55905" y1="240.94488" x2="127.55905" y2="331.09748" marker-end="url(#FilledArrow_Marker)" stroke="#a5a5a5" stroke-linecap="round" stroke-linejoin="round" stroke-width="2"/>
      </g>
      <g id="Group_74">
        <g id="Graphic_76">
          <path d="M 468.5433 510.2362 L 693.6614 510.2362 C 701.9457 510.2362 708.6614 516.95195 708.6614 525.2362 L 708.6614 566.10236 C 708.6614 574.3866 701.9457 581.10236 693.6614 581.10236 L 468.5433 581.10236 C 460.25903 581.10236 453.5433 574.3866 453.5433 566.10236 L 453.5433 525.2362 C 453.5433 516.95195 460.25903 510.2362 468.5433 510.2362 Z" fill="#6891ad" fill-opacity=".632099"/>
          <path d="M 468.5433 510.2362 L 693.6614 510.2362 C 701.9457 510.2362 708.6614 516.95195 708.6614 525.2362 L 708.6614 566.10236 C 708.6614 574.3866 701.9457 581.10236 693.6614 581.10236 L 468.5433 581.10236 C 460.25903 581.10236 453.5433 574.3866 453.5433 566.10236 L 453.5433 525.2362 C 453.5433 516.95195 460.25903 510.2362 468.5433 510.2362 Z" stroke="black" stroke-linecap="round" stroke-linejoin="round" stroke-width="0"/>
        </g>
        <g id="Graphic_75">
          <text transform="translate(552.2977 535.0013)" fill="white">
            <tspan font-family="Monaco" font-size="16" fill="white" x="0" y="16" xml:space="preserve">Object</tspan>
          </text>
        </g>
      </g>
      <g id="Graphic_77">
        <text transform="translate(142.51813 153.2861)" fill="#666">
          <tspan font-family="Monaco" font-size="12" fill="#666" x="0" y="12" xml:space="preserve">1</tspan>
        </text>
      </g>
      <g id="Graphic_78">
        <text transform="translate(142.21808 239.14862)" fill="black">
          <tspan font-family="Monaco" font-size="13" fill="black" x="0" y="13" xml:space="preserve">n</tspan>
        </text>
      </g>
      <g id="Graphic_79">
        <text transform="translate(514.19455 45.35105)" fill="#666">
          <tspan font-family="Monaco" font-size="12" fill="#666" x="0" y="12" xml:space="preserve">1</tspan>
        </text>
      </g>
      <g id="Graphic_80">
        <text transform="translate(558.8732 75.86614)" fill="black">
          <tspan font-family="Monaco" font-size="13" fill="black" x="0" y="13" xml:space="preserve">n</tspan>
        </text>
      </g>
      <g id="Graphic_81">
        <text transform="translate(559.17323 319.15553)" fill="#666">
          <tspan font-family="Monaco" font-size="12" fill="#666" x="0" y="12" xml:space="preserve">1</tspan>
        </text>
      </g>
      <g id="Graphic_82">
        <text transform="translate(507.84956 349.6706)" fill="black">
          <tspan font-family="Monaco" font-size="13" fill="black" x="0" y="13" xml:space="preserve">n</tspan>
        </text>
      </g>
      <g id="Graphic_83">
        <text transform="translate(-255.7874 45.35105)" fill="#666">
          <tspan font-family="Monaco" font-size="12" fill="#666" x="0" y="12" xml:space="preserve">1</tspan>
        </text>
      </g>
      <g id="Graphic_84">
        <text transform="translate(-315.62167 75.86614)" fill="black">
          <tspan font-family="Monaco" font-size="13" fill="black" x="0" y="13" xml:space="preserve">n</tspan>
        </text>
      </g>
      <g id="Graphic_85">
        <text transform="translate(-315.32162 319.15553)" fill="#666">
          <tspan font-family="Monaco" font-size="12" fill="#666" x="0" y="12" xml:space="preserve">1</tspan>
        </text>
      </g>
      <g id="Graphic_86">
        <text transform="translate(-255.7874 349.6706)" fill="#666">
          <tspan font-family="Monaco" font-size="12" fill="#666" x="0" y="12" xml:space="preserve">1</tspan>
        </text>
      </g>
      <g id="Group_91">
        <g id="Graphic_93">
          <path d="M 127.64904 512.6279 L 198.51518 548.061 L 127.64904 583.49405 L 56.7829 548.061 Z" fill="#929292"/>
          <path d="M 127.64904 512.6279 L 198.51518 548.061 L 127.64904 583.49405 L 56.7829 548.061 Z" stroke="black" stroke-linecap="round" stroke-linejoin="round" stroke-width="0"/>
        </g>
        <g id="Graphic_92">
          <text transform="translate(98.15427 538.4765)" fill="white">
            <tspan font-family="Monaco" font-size="14" fill="white" x="0" y="14" xml:space="preserve">contain</tspan>
          </text>
        </g>
      </g>
      <g id="Line_90">
        <line x1="127.58232" y1="411.0236" x2="127.64309" y2="503.5679" marker-end="url(#FilledArrow_Marker)" stroke="#a5a5a5" stroke-linecap="round" stroke-linejoin="round" stroke-width="2"/>
      </g>
      <g id="Line_89">
        <line x1="127.64904" y1="583.49405" x2="127.64904" y2="671.25496" marker-end="url(#FilledArrow_Marker)" stroke="#a5a5a5" stroke-linecap="round" stroke-linejoin="round" stroke-width="2"/>
      </g>
      <g id="Graphic_88">
        <text transform="translate(142.60811 495.8353)" fill="#666">
          <tspan font-family="Monaco" font-size="12" fill="#666" x="0" y="12" xml:space="preserve">1</tspan>
        </text>
      </g>
      <g id="Graphic_87">
        <text transform="translate(142.60811 581.6978)" fill="#666">
          <tspan font-family="Monaco" font-size="12" fill="#666" x="0" y="12" xml:space="preserve">n</tspan>
        </text>
      </g>
      <g id="Group_98">
        <g id="Graphic_100">
          <path d="M -325.98425 680.31496 L -255.1181 715.748 L -325.98425 751.1811 L -396.8504 715.748 Z" fill="#929292"/>
          <path d="M -325.98425 680.31496 L -255.1181 715.748 L -325.98425 751.1811 L -396.8504 715.748 Z" stroke="black" stroke-linecap="round" stroke-linejoin="round" stroke-width="0"/>
        </g>
        <g id="Graphic_99">
          <text transform="translate(-355.38904 706.16355)" fill="white">
            <tspan font-family="Monaco" font-size="14" fill="white" x="0" y="14" xml:space="preserve">contain</tspan>
          </text>
        </g>
      </g>
      <g id="Line_97">
        <line x1="-325.98425" y1="590.16236" x2="-325.98425" y2="680.31496" marker-start="url(#FilledArrow_Marker_2)" stroke="#a5a5a5" stroke-linecap="round" stroke-linejoin="round" stroke-width="2"/>
      </g>
      <g id="Line_96">
        <line x1="-246.0581" y1="715.748" x2=".08998615" y2="715.748" marker-start="url(#FilledArrow_Marker_2)" stroke="#a5a5a5" stroke-linecap="round" stroke-linejoin="round" stroke-width="2"/>
      </g>
      <g id="Graphic_95">
        <text transform="translate(-315.62167 659.313)" fill="black">
          <tspan font-family="Monaco" font-size="13" fill="black" x="0" y="13" xml:space="preserve">n</tspan>
        </text>
      </g>
      <g id="Graphic_94">
        <text transform="translate(-255.7874 689.8281)" fill="#666">
          <tspan font-family="Monaco" font-size="12" fill="#666" x="0" y="12" xml:space="preserve">1</tspan>
        </text>
      </g>
      <g id="Group_105">
        <g id="Graphic_107">
          <path d="M 581.2823 680.31496 L 652.1485 715.748 L 581.2823 751.1811 L 510.4162 715.748 Z" fill="#929292"/>
          <path d="M 581.2823 680.31496 L 652.1485 715.748 L 581.2823 751.1811 L 510.4162 715.748 Z" stroke="black" stroke-linecap="round" stroke-linejoin="round" stroke-width="0"/>
        </g>
        <g id="Graphic_106">
          <text transform="translate(551.87755 706.16355)" fill="white">
            <tspan font-family="Monaco" font-size="14" fill="white" x="0" y="14" xml:space="preserve">contain</tspan>
          </text>
        </g>
      </g>
      <g id="Line_104">
        <line x1="581.1618" y1="590.16235" x2="581.2823" y2="680.31496" marker-start="url(#FilledArrow_Marker_2)" stroke="#a5a5a5" stroke-linecap="round" stroke-linejoin="round" stroke-width="2"/>
      </g>
      <g id="Line_103">
        <line x1="255.2081" y1="715.748" x2="501.3562" y2="715.748" marker-end="url(#FilledArrow_Marker)" stroke="#a5a5a5" stroke-linecap="round" stroke-linejoin="round" stroke-width="2"/>
      </g>
      <g id="Graphic_102">
        <text transform="translate(558.8732 659.313)" fill="black">
          <tspan font-family="Monaco" font-size="13" fill="black" x="0" y="13" xml:space="preserve">n</tspan>
        </text>
      </g>
      <g id="Graphic_101">
        <text transform="translate(518.1087 689.8281)" fill="#666">
          <tspan font-family="Monaco" font-size="12" fill="#666" x="0" y="12" xml:space="preserve">1</tspan>
        </text>
      </g>
      <g id="Graphic_108">
        <text transform="translate(-448.26504 489.23426)" fill="#497fa0">
          <tspan font-family="Monaco" font-size="12" fill="#497fa0" x="0" y="12" xml:space="preserve">relname  = public.pgbench_accounts</tspan>
        </text>
      </g>
      <g id="Graphic_110">
        <text transform="translate(-315.32162 251.2907)" fill="#ff7c7b">
          <tspan font-family="Monaco" font-size="12" fill="#ff7c7b" x="0" y="12" xml:space="preserve">10.10.10.11</tspan>
          <tspan font-family="Monaco" font-size="12" fill="#ff7c7b" x="0" y="28.001953" xml:space="preserve">10.10.10.12</tspan>
          <tspan font-family="Monaco" font-size="12" fill="#ff7c7b" x="0" y="44.003906" xml:space="preserve">10.10.10.13</tspan>
        </text>
      </g>
      <g id="Group_148">
        <g id="Graphic_150">
          <path d="M 15.278265 -340.1575 L 240.39637 -340.1575 C 248.68064 -340.1575 255.39637 -333.44175 255.39637 -325.1575 L 255.39637 -284.29134 C 255.39637 -276.00707 248.68064 -269.29134 240.39637 -269.29134 L 15.278265 -269.29134 C 6.993994 -269.29134 .278265 -276.00707 .278265 -284.29134 L .278265 -325.1575 C .278265 -333.44175 6.993994 -340.1575 15.278265 -340.1575 Z" fill="#88ccb1"/>
          <path d="M 15.278265 -340.1575 L 240.39637 -340.1575 C 248.68064 -340.1575 255.39637 -333.44175 255.39637 -325.1575 L 255.39637 -284.29134 C 255.39637 -276.00707 248.68064 -269.29134 240.39637 -269.29134 L 15.278265 -269.29134 C 6.993994 -269.29134 .278265 -276.00707 .278265 -284.29134 L .278265 -325.1575 C .278265 -333.44175 6.993994 -340.1575 15.278265 -340.1575 Z" stroke="black" stroke-linecap="round" stroke-linejoin="round" stroke-width="0"/>
        </g>
        <g id="Graphic_149">
          <text transform="translate(89.43107 -315.3924)" fill="white">
            <tspan font-family="Monaco" font-size="16" fill="white" x="0" y="16" xml:space="preserve">Instance</tspan>
          </text>
        </g>
      </g>
      <g id="Group_145">
        <g id="Graphic_147">
          <path d="M 15.278265 -340.1575 L 240.39637 -340.1575 C 248.68064 -340.1575 255.39637 -333.44175 255.39637 -325.1575 L 255.39637 -284.29134 C 255.39637 -276.00707 248.68064 -269.29134 240.39637 -269.29134 L 15.278265 -269.29134 C 6.993994 -269.29134 .278265 -276.00707 .278265 -284.29134 L .278265 -325.1575 C .278265 -333.44175 6.993994 -340.1575 15.278265 -340.1575 Z" fill="#ff7c7b"/>
          <path d="M 15.278265 -340.1575 L 240.39637 -340.1575 C 248.68064 -340.1575 255.39637 -333.44175 255.39637 -325.1575 L 255.39637 -284.29134 C 255.39637 -276.00707 248.68064 -269.29134 240.39637 -269.29134 L 15.278265 -269.29134 C 6.993994 -269.29134 .278265 -276.00707 .278265 -284.29134 L .278265 -325.1575 C .278265 -333.44175 6.993994 -340.1575 15.278265 -340.1575 Z" stroke="black" stroke-linecap="round" stroke-linejoin="round" stroke-width="0"/>
        </g>
        <g id="Graphic_146">
          <text transform="translate(75.02872 -315.3924)" fill="white">
            <tspan font-family="Monaco" font-size="16" fill="white" x="0" y="16" xml:space="preserve">Environment</tspan>
          </text>
        </g>
      </g>
      <g id="Group_142">
        <g id="Graphic_144">
          <path d="M -438.26504 -170.07874 L -213.14693 -170.07874 C -204.86266 -170.07874 -198.14693 -163.36302 -198.14693 -155.07874 L -198.14693 -114.2126 C -198.14693 -105.92833 -204.86266 -99.2126 -213.14693 -99.2126 L -438.26504 -99.2126 C -446.5493 -99.2126 -453.26504 -105.92833 -453.26504 -114.2126 L -453.26504 -155.07874 C -453.26504 -163.36302 -446.5493 -170.07874 -438.26504 -170.07874 Z" fill="#47678e"/>
          <path d="M -438.26504 -170.07874 L -213.14693 -170.07874 C -204.86266 -170.07874 -198.14693 -163.36302 -198.14693 -155.07874 L -198.14693 -114.2126 C -198.14693 -105.92833 -204.86266 -99.2126 -213.14693 -99.2126 L -438.26504 -99.2126 C -446.5493 -99.2126 -453.26504 -105.92833 -453.26504 -114.2126 L -453.26504 -155.07874 C -453.26504 -163.36302 -446.5493 -170.07874 -438.26504 -170.07874 Z" stroke="black" stroke-linecap="round" stroke-linejoin="round" stroke-width="0"/>
        </g>
        <g id="Graphic_143">
          <text transform="translate(-368.913 -145.31364)" fill="white">
            <tspan font-family="Monaco" font-size="16" fill="white" x="0" y="16" xml:space="preserve">Inventory</tspan>
          </text>
        </g>
      </g>
      <g id="Group_139">
        <g id="Graphic_141">
          <path d="M 468.82157 -170.07874 L 693.9397 -170.07874 C 702.22395 -170.07874 708.9397 -163.36302 708.9397 -155.07874 L 708.9397 -114.2126 C 708.9397 -105.92833 702.22395 -99.2126 693.9397 -99.2126 L 468.82157 -99.2126 C 460.5373 -99.2126 453.82157 -105.92833 453.82157 -114.2126 L 453.82157 -155.07874 C 453.82157 -163.36302 460.5373 -170.07874 468.82157 -170.07874 Z" fill="#ff6a29"/>
          <path d="M 468.82157 -170.07874 L 693.9397 -170.07874 C 702.22395 -170.07874 708.9397 -163.36302 708.9397 -155.07874 L 708.9397 -114.2126 C 708.9397 -105.92833 702.22395 -99.2126 693.9397 -99.2126 L 468.82157 -99.2126 C 460.5373 -99.2126 453.82157 -105.92833 453.82157 -114.2126 L 453.82157 -155.07874 C 453.82157 -163.36302 460.5373 -170.07874 468.82157 -170.07874 Z" stroke="black" stroke-linecap="round" stroke-linejoin="round" stroke-width="0"/>
        </g>
        <g id="Graphic_140">
          <text transform="translate(514.1697 -145.31364)" fill="white">
            <tspan font-family="Monaco" font-size="16" fill="white" x="0" y="16" xml:space="preserve">Infrastructure</tspan>
          </text>
        </g>
      </g>
      <g id="Group_136">
        <g id="Graphic_138">
          <path d="M -325.706 -340.1575 L -254.83984 -304.7244 L -325.706 -269.29134 L -396.57213 -304.7244 Z" fill="#929292"/>
          <path d="M -325.706 -340.1575 L -254.83984 -304.7244 L -325.706 -269.29134 L -396.57213 -304.7244 Z" stroke="black" stroke-linecap="round" stroke-linejoin="round" stroke-width="0"/>
        </g>
        <g id="Graphic_137">
          <text transform="translate(-359.31145 -314.3089)" fill="white">
            <tspan font-family="Monaco" font-size="14" fill="white" x="0" y="14" xml:space="preserve">Describe</tspan>
          </text>
        </g>
      </g>
      <g id="Group_133">
        <g id="Graphic_135">
          <path d="M 581.3806 -340.1575 L 652.2468 -304.7244 L 581.3806 -269.29134 L 510.5145 -304.7244 Z" fill="#929292"/>
          <path d="M 581.3806 -340.1575 L 652.2468 -304.7244 L 581.3806 -269.29134 L 510.5145 -304.7244 Z" stroke="black" stroke-linecap="round" stroke-linejoin="round" stroke-width="0"/>
        </g>
        <g id="Graphic_134">
          <text transform="translate(568.7786 -314.3089)" fill="white">
            <tspan font-family="Monaco" font-size="14" fill="white" x="0" y="14" xml:space="preserve">has</tspan>
          </text>
        </g>
      </g>
      <g id="Graphic_132">
        <text transform="translate(176.49606 -258.15846)" fill="#ff7c7b">
          <tspan font-family="Monaco" font-size="12" fill="#ff7c7b" x="18.808094" y="12" xml:space="preserve">pgsql</tspan>
        </text>
      </g>
      <g id="Group_127">
        <g id="Graphic_129">
          <path d="M 127.83732 -170.07874 L 198.70346 -134.64567 L 127.83732 -99.2126 L 56.97118 -134.64567 Z" fill="#929292"/>
          <path d="M 127.83732 -170.07874 L 198.70346 -134.64567 L 127.83732 -99.2126 L 56.97118 -134.64567 Z" stroke="black" stroke-linecap="round" stroke-linejoin="round" stroke-width="0"/>
        </g>
        <g id="Graphic_128">
          <text transform="translate(94.32184 -144.23015)" fill="white">
            <tspan font-family="Monaco" font-size="14" fill="white" x="0" y="14" xml:space="preserve">contains</tspan>
          </text>
        </g>
      </g>
      <g id="Line_126">
        <line x1="256.8137" y1="-304.7244" x2="501.4545" y2="-304.7244" marker-end="url(#FilledArrow_Marker)" stroke="#a5a5a5" stroke-linecap="round" stroke-linejoin="round" stroke-width="2"/>
      </g>
      <g id="Line_125">
        <line x1="581.3806" y1="-269.29134" x2="581.3806" y2="-179.13874" marker-end="url(#FilledArrow_Marker)" stroke="#a5a5a5" stroke-linecap="round" stroke-linejoin="round" stroke-width="2"/>
      </g>
      <g id="Line_122">
        <line x1="-325.706" y1="-260.23134" x2="-325.706" y2="-170.07874" marker-start="url(#FilledArrow_Marker_2)" stroke="#a5a5a5" stroke-linecap="round" stroke-linejoin="round" stroke-width="2"/>
      </g>
      <g id="Line_121">
        <line x1="-254.83984" y1="-304.7244" x2="-8.781735" y2="-304.7244" marker-end="url(#FilledArrow_Marker)" stroke="#a5a5a5" stroke-linecap="round" stroke-linejoin="round" stroke-width="2"/>
      </g>
      <g id="Line_120">
        <line x1="127.83732" y1="-269.29134" x2="127.83732" y2="-179.13874" marker-end="url(#FilledArrow_Marker)" stroke="#a5a5a5" stroke-linecap="round" stroke-linejoin="round" stroke-width="2"/>
      </g>
      <g id="Line_119">
        <line x1="127.83732" y1="-99.2126" x2="127.651" y2="-9.059981" marker-end="url(#FilledArrow_Marker)" stroke="#a5a5a5" stroke-linecap="round" stroke-linejoin="round" stroke-width="2"/>
      </g>
      <g id="Graphic_118">
        <text transform="translate(142.7964 -186.87138)" fill="#666">
          <tspan font-family="Monaco" font-size="12" fill="#666" x="0" y="12" xml:space="preserve">1</tspan>
        </text>
      </g>
      <g id="Graphic_117">
        <text transform="translate(142.49634 -101.00886)" fill="black">
          <tspan font-family="Monaco" font-size="13" fill="black" x="0" y="13" xml:space="preserve">n</tspan>
        </text>
      </g>
      <g id="Graphic_116">
        <text transform="translate(514.4728 -294.80643)" fill="#666">
          <tspan font-family="Monaco" font-size="12" fill="#666" x="0" y="12" xml:space="preserve">1</tspan>
        </text>
      </g>
      <g id="Graphic_115">
        <text transform="translate(559.4515 -264.29134)" fill="#666">
          <tspan font-family="Monaco" font-size="12" fill="#666" x="0" y="12" xml:space="preserve">1</tspan>
        </text>
      </g>
      <g id="Graphic_114">
        <text transform="translate(-255.50914 -294.80643)" fill="#666">
          <tspan font-family="Monaco" font-size="12" fill="#666" x="0" y="12" xml:space="preserve">1</tspan>
        </text>
      </g>
      <g id="Graphic_113">
        <text transform="translate(-315.04336 -264.29134)" fill="#666">
          <tspan font-family="Monaco" font-size="12" fill="#666" x="0" y="12" xml:space="preserve">1</tspan>
        </text>
      </g>
    </g>
  </g>
</svg>
