<?xml version="1.0" encoding="UTF-8" standalone="no"?>
<!DOCTYPE svg PUBLIC "-//W3C//DTD SVG 1.1//EN" "http://www.w3.org/Graphics/SVG/1.1/DTD/svg11.dtd">
<svg xmlns="http://www.w3.org/2000/svg" xmlns:dc="http://purl.org/dc/elements/1.1/" version="1.1" xmlns:xl="http://www.w3.org/1999/xlink" viewBox="-4 -2 996 596" width="996" height="596">
  <defs>
    <filter id="Shadow" filterUnits="userSpaceOnUse" x="-103.6" y="-61.6">
      <feGaussianBlur in="SourceAlpha" result="blur" stdDeviation="1.744"/>
      <feOffset in="blur" result="offset" dx="0" dy="2"/>
      <feFlood flood-color="black" flood-opacity=".5" result="flood"/>
      <feComposite in="flood" in2="offset" operator="in"/>
    </filter>
    <marker orient="auto" overflow="visible" markerUnits="strokeWidth" id="FilledArrow_Marker" stroke-linejoin="miter" stroke-miterlimit="10" viewBox="-1 -2 5 4" markerWidth="5" markerHeight="4" color="#666">
      <g>
        <path d="M 2.4 0 L 0 -.9 L 0 .9 Z" fill="currentColor" stroke="currentColor" stroke-width="1"/>
      </g>
    </marker>
    <marker orient="auto" overflow="visible" markerUnits="strokeWidth" id="FilledArrow_Marker_2" stroke-linejoin="miter" stroke-miterlimit="10" viewBox="-4 -2 6 4" markerWidth="6" markerHeight="4" color="#666">
      <g>
        <path d="M -2.4 0 L 0 .9 L 0 -.9 Z" fill="currentColor" stroke="currentColor" stroke-width="1"/>
      </g>
    </marker>
  </defs>
  <g id="版面____-2" stroke="none" fill="none" stroke-opacity="1" stroke-dasharray="none" fill-opacity="1">
    <title>实体关系图</title>
    <g id="版面____-2_图层_1">
      <title>图层 1</title>
      <g id="Graphic_89_shadow" filter="url(#Shadow)">
        <path d="M 373.8055 0 L 598.9236 0 C 607.2079 5072653e-22 613.9236 6.715729 613.9236 15 L 613.9236 55.86614 C 613.9236 64.15041 607.2079 70.86614 598.9236 70.86614 L 373.8055 70.86614 C 365.52125 70.86614 358.80552 64.15041 358.80552 55.86614 L 358.80552 15 C 358.80552 6.715729 365.52125 -10145306e-22 373.8055 0 Z" fill="#88ccb1"/>
        <path d="M 373.8055 0 L 598.9236 0 C 607.2079 5072653e-22 613.9236 6.715729 613.9236 15 L 613.9236 55.86614 C 613.9236 64.15041 607.2079 70.86614 598.9236 70.86614 L 373.8055 70.86614 C 365.52125 70.86614 358.80552 64.15041 358.80552 55.86614 L 358.80552 15 C 358.80552 6.715729 365.52125 -10145306e-22 373.8055 0 Z" stroke="black" stroke-linecap="round" stroke-linejoin="round" stroke-width="0"/>
      </g>
      <g id="Graphic_86_shadow" filter="url(#Shadow)">
        <path d="M 373.8055 0 L 598.9236 0 C 607.2079 5072653e-22 613.9236 6.715729 613.9236 15 L 613.9236 55.86614 C 613.9236 64.15041 607.2079 70.86614 598.9236 70.86614 L 373.8055 70.86614 C 365.52125 70.86614 358.80552 64.15041 358.80552 55.86614 L 358.80552 15 C 358.80552 6.715729 365.52125 -10145306e-22 373.8055 0 Z" fill="#f7c574"/>
        <path d="M 373.8055 0 L 598.9236 0 C 607.2079 5072653e-22 613.9236 6.715729 613.9236 15 L 613.9236 55.86614 C 613.9236 64.15041 607.2079 70.86614 598.9236 70.86614 L 373.8055 70.86614 C 365.52125 70.86614 358.80552 64.15041 358.80552 55.86614 L 358.80552 15 C 358.80552 6.715729 365.52125 -10145306e-22 373.8055 0 Z" stroke="black" stroke-linecap="round" stroke-linejoin="round" stroke-width="0"/>
      </g>
      <g id="Graphic_83_shadow" filter="url(#Shadow)">
        <path d="M 15 128.07874 L 240.1181 128.07874 C 248.40238 128.07874 255.1181 134.79447 255.1181 143.07874 L 255.1181 183.94488 C 255.1181 192.22915 248.40238 198.94488 240.1181 198.94488 L 15 198.94488 C 6.715729 198.94488 5785795e-20 192.22915 5684342e-20 183.94488 L 58619776e-21 143.07874 C 59634306e-21 134.79447 6.715729 128.07874 15 128.07874 Z" fill="#f49891"/>
        <path d="M 15 128.07874 L 240.1181 128.07874 C 248.40238 128.07874 255.1181 134.79447 255.1181 143.07874 L 255.1181 183.94488 C 255.1181 192.22915 248.40238 198.94488 240.1181 198.94488 L 15 198.94488 C 6.715729 198.94488 5785795e-20 192.22915 5684342e-20 183.94488 L 58619776e-21 143.07874 C 59634306e-21 134.79447 6.715729 128.07874 15 128.07874 Z" stroke="black" stroke-linecap="round" stroke-linejoin="round" stroke-width="0"/>
      </g>
      <g id="Graphic_80_shadow" filter="url(#Shadow)">
        <path d="M 747.3488 128.07874 L 972.4669 128.07874 C 980.7512 128.07874 987.4669 134.79447 987.4669 143.07874 L 987.4669 183.94488 C 987.4669 192.22915 980.7512 198.94488 972.4669 198.94488 L 747.3488 198.94488 C 739.06455 198.94488 732.3488 192.22915 732.3488 183.94488 L 732.3488 143.07874 C 732.3488 134.79447 739.06455 128.07874 747.3488 128.07874 Z" fill="#808adc"/>
        <path d="M 747.3488 128.07874 L 972.4669 128.07874 C 980.7512 128.07874 987.4669 134.79447 987.4669 143.07874 L 987.4669 183.94488 C 987.4669 192.22915 980.7512 198.94488 972.4669 198.94488 L 747.3488 198.94488 C 739.06455 198.94488 732.3488 192.22915 732.3488 183.94488 L 732.3488 143.07874 C 732.3488 134.79447 739.06455 128.07874 747.3488 128.07874 Z" stroke="black" stroke-linecap="round" stroke-linejoin="round" stroke-width="0"/>
      </g>
      <g id="Graphic_67_shadow" filter="url(#Shadow)">
        <path d="M 373.8955 516.9048 L 599.0136 516.9048 C 607.2979 516.9048 614.0136 523.6205 614.0136 531.9048 L 614.0136 572.7709 C 614.0136 581.0552 607.2979 587.7709 599.0136 587.7709 L 373.8955 587.7709 C 365.61124 587.7709 358.8955 581.0552 358.8955 572.7709 L 358.8955 531.9048 C 358.8955 523.6205 365.61124 516.9048 373.8955 516.9048 Z" fill="#84baf9"/>
        <path d="M 373.8955 516.9048 L 599.0136 516.9048 C 607.2979 516.9048 614.0136 523.6205 614.0136 531.9048 L 614.0136 572.7709 C 614.0136 581.0552 607.2979 587.7709 599.0136 587.7709 L 373.8955 587.7709 C 365.61124 587.7709 358.8955 581.0552 358.8955 572.7709 L 358.8955 531.9048 C 358.8955 523.6205 365.61124 516.9048 373.8955 516.9048 Z" stroke="black" stroke-linecap="round" stroke-linejoin="round" stroke-width="0"/>
      </g>
      <g id="Graphic_60_shadow" filter="url(#Shadow)">
        <path d="M 15 392.3064 L 240.1181 392.3064 C 248.40238 392.3064 255.1181 399.02214 255.1181 407.3064 L 255.1181 448.17255 C 255.1181 456.4568 248.40238 463.17255 240.1181 463.17255 L 15 463.17255 C 6.715729 463.17255 5785795e-20 456.4568 5684342e-20 448.17255 L 58619776e-21 407.3064 C 59634306e-21 399.02214 6.715729 392.3064 15 392.3064 Z" fill="#497fa0"/>
        <path d="M 15 392.3064 L 240.1181 392.3064 C 248.40238 392.3064 255.1181 399.02214 255.1181 407.3064 L 255.1181 448.17255 C 255.1181 456.4568 248.40238 463.17255 240.1181 463.17255 L 15 463.17255 C 6.715729 463.17255 5785795e-20 456.4568 5684342e-20 448.17255 L 58619776e-21 407.3064 C 59634306e-21 399.02214 6.715729 392.3064 15 392.3064 Z" stroke="black" stroke-linecap="round" stroke-linejoin="round" stroke-width="0"/>
      </g>
      <g id="Graphic_56_shadow" filter="url(#Shadow)">
        <path d="M 373.8055 263.69257 L 598.9236 263.69257 C 607.2079 263.69257 613.9236 270.4083 613.9236 278.69257 L 613.9236 319.5587 C 613.9236 327.843 607.2079 334.5587 598.9236 334.5587 L 373.8055 334.5587 C 365.52125 334.5587 358.80552 327.843 358.80552 319.5587 L 358.80552 278.69257 C 358.80552 270.4083 365.52125 263.69257 373.8055 263.69257 Z" fill="#88ccb1"/>
        <path d="M 373.8055 263.69257 L 598.9236 263.69257 C 607.2079 263.69257 613.9236 270.4083 613.9236 278.69257 L 613.9236 319.5587 C 613.9236 327.843 607.2079 334.5587 598.9236 334.5587 L 373.8055 334.5587 C 365.52125 334.5587 358.80552 327.843 358.80552 319.5587 L 358.80552 278.69257 C 358.80552 270.4083 365.52125 263.69257 373.8055 263.69257 Z" stroke="black" stroke-linecap="round" stroke-linejoin="round" stroke-width="0"/>
      </g>
      <g id="Graphic_37_shadow" filter="url(#Shadow)">
        <path d="M 747.3488 392.3064 L 972.4669 392.3064 C 980.7512 392.3064 987.4669 399.02214 987.4669 407.3064 L 987.4669 448.17255 C 987.4669 456.4568 980.7512 463.17255 972.4669 463.17255 L 747.3488 463.17255 C 739.06455 463.17255 732.3488 456.4568 732.3488 448.17255 L 732.3488 407.3064 C 732.3488 399.02214 739.06455 392.3064 747.3488 392.3064 Z" fill="#497fa0" fill-opacity=".6320987"/>
        <path d="M 747.3488 392.3064 L 972.4669 392.3064 C 980.7512 392.3064 987.4669 399.02214 987.4669 407.3064 L 987.4669 448.17255 C 987.4669 456.4568 980.7512 463.17255 972.4669 463.17255 L 747.3488 463.17255 C 739.06455 463.17255 732.3488 456.4568 732.3488 448.17255 L 732.3488 407.3064 C 732.3488 399.02214 739.06455 392.3064 747.3488 392.3064 Z" stroke="black" stroke-linecap="round" stroke-linejoin="round" stroke-width="0"/>
      </g>
      <g id="Group_87">
        <g id="Graphic_89">
          <path d="M 373.8055 0 L 598.9236 0 C 607.2079 5072653e-22 613.9236 6.715729 613.9236 15 L 613.9236 55.86614 C 613.9236 64.15041 607.2079 70.86614 598.9236 70.86614 L 373.8055 70.86614 C 365.52125 70.86614 358.80552 64.15041 358.80552 55.86614 L 358.80552 15 C 358.80552 6.715729 365.52125 -10145306e-22 373.8055 0 Z" fill="#88ccb1"/>
          <path d="M 373.8055 0 L 598.9236 0 C 607.2079 5072653e-22 613.9236 6.715729 613.9236 15 L 613.9236 55.86614 C 613.9236 64.15041 607.2079 70.86614 598.9236 70.86614 L 373.8055 70.86614 C 365.52125 70.86614 358.80552 64.15041 358.80552 55.86614 L 358.80552 15 C 358.80552 6.715729 365.52125 -10145306e-22 373.8055 0 Z" stroke="black" stroke-linecap="round" stroke-linejoin="round" stroke-width="0"/>
        </g>
        <g id="Graphic_88">
          <text transform="translate(447.9583 24.765102)" fill="white">
            <tspan font-family="Monaco" font-size="16" fill="white" x="0" y="16" xml:space="preserve">Instance</tspan>
          </text>
        </g>
      </g>
      <g id="Group_84">
        <g id="Graphic_86">
          <path d="M 373.8055 0 L 598.9236 0 C 607.2079 5072653e-22 613.9236 6.715729 613.9236 15 L 613.9236 55.86614 C 613.9236 64.15041 607.2079 70.86614 598.9236 70.86614 L 373.8055 70.86614 C 365.52125 70.86614 358.80552 64.15041 358.80552 55.86614 L 358.80552 15 C 358.80552 6.715729 365.52125 -10145306e-22 373.8055 0 Z" fill="#f7c574"/>
          <path d="M 373.8055 0 L 598.9236 0 C 607.2079 5072653e-22 613.9236 6.715729 613.9236 15 L 613.9236 55.86614 C 613.9236 64.15041 607.2079 70.86614 598.9236 70.86614 L 373.8055 70.86614 C 365.52125 70.86614 358.80552 64.15041 358.80552 55.86614 L 358.80552 15 C 358.80552 6.715729 365.52125 -10145306e-22 373.8055 0 Z" stroke="black" stroke-linecap="round" stroke-linejoin="round" stroke-width="0"/>
        </g>
        <g id="Graphic_85">
          <text transform="translate(435.95637 19.431118)" fill="white">
            <tspan font-family="Monaco" font-size="24" fill="white" x="0" y="24" xml:space="preserve">Cluster</tspan>
          </text>
        </g>
      </g>
      <g id="Group_81">
        <g id="Graphic_83">
          <path d="M 15 128.07874 L 240.1181 128.07874 C 248.40238 128.07874 255.1181 134.79447 255.1181 143.07874 L 255.1181 183.94488 C 255.1181 192.22915 248.40238 198.94488 240.1181 198.94488 L 15 198.94488 C 6.715729 198.94488 5785795e-20 192.22915 5684342e-20 183.94488 L 58619776e-21 143.07874 C 59634306e-21 134.79447 6.715729 128.07874 15 128.07874 Z" fill="#f49891"/>
          <path d="M 15 128.07874 L 240.1181 128.07874 C 248.40238 128.07874 255.1181 134.79447 255.1181 143.07874 L 255.1181 183.94488 C 255.1181 192.22915 248.40238 198.94488 240.1181 198.94488 L 15 198.94488 C 6.715729 198.94488 5785795e-20 192.22915 5684342e-20 183.94488 L 58619776e-21 143.07874 C 59634306e-21 134.79447 6.715729 128.07874 15 128.07874 Z" stroke="black" stroke-linecap="round" stroke-linejoin="round" stroke-width="0"/>
        </g>
        <g id="Graphic_82">
          <text transform="translate(98.75436 147.50986)" fill="white">
            <tspan font-family="Monaco" font-size="24" fill="white" x="0" y="24" xml:space="preserve">Node</tspan>
          </text>
        </g>
      </g>
      <g id="Group_78">
        <g id="Graphic_80">
          <path d="M 747.3488 128.07874 L 972.4669 128.07874 C 980.7512 128.07874 987.4669 134.79447 987.4669 143.07874 L 987.4669 183.94488 C 987.4669 192.22915 980.7512 198.94488 972.4669 198.94488 L 747.3488 198.94488 C 739.06455 198.94488 732.3488 192.22915 732.3488 183.94488 L 732.3488 143.07874 C 732.3488 134.79447 739.06455 128.07874 747.3488 128.07874 Z" fill="#808adc"/>
          <path d="M 747.3488 128.07874 L 972.4669 128.07874 C 980.7512 128.07874 987.4669 134.79447 987.4669 143.07874 L 987.4669 183.94488 C 987.4669 192.22915 980.7512 198.94488 972.4669 198.94488 L 747.3488 198.94488 C 739.06455 198.94488 732.3488 192.22915 732.3488 183.94488 L 732.3488 143.07874 C 732.3488 134.79447 739.06455 128.07874 747.3488 128.07874 Z" stroke="black" stroke-linecap="round" stroke-linejoin="round" stroke-width="0"/>
        </g>
        <g id="Graphic_79">
          <text transform="translate(809.4997 147.50986)" fill="white">
            <tspan font-family="Monaco" font-size="24" fill="white" x="0" y="24" xml:space="preserve">Service</tspan>
          </text>
        </g>
      </g>
      <g id="Group_75">
        <g id="Graphic_77">
          <path d="M 127.55905 0 L 198.4252 35.43307 L 127.55905 70.86614 L 56.69291 35.43307 Z" fill="#929292"/>
          <path d="M 127.55905 0 L 198.4252 35.43307 L 127.55905 70.86614 L 56.69291 35.43307 Z" stroke="black" stroke-linecap="round" stroke-linejoin="round" stroke-width="0"/>
        </g>
        <g id="Graphic_76">
          <text transform="translate(98.15427 25.848598)" fill="white">
            <tspan font-family="Monaco" font-size="14" fill="white" x="0" y="14" xml:space="preserve">contain</tspan>
          </text>
        </g>
      </g>
      <g id="Group_72">
        <g id="Graphic_74">
          <path d="M 859.9079 0 L 930.774 35.43307 L 859.9079 70.86614 L 789.0417 35.43307 Z" fill="#929292"/>
          <path d="M 859.9079 0 L 930.774 35.43307 L 859.9079 70.86614 L 789.0417 35.43307 Z" stroke="black" stroke-linecap="round" stroke-linejoin="round" stroke-width="0"/>
        </g>
        <g id="Graphic_73">
          <text transform="translate(834.7038 25.848598)" fill="white">
            <tspan font-family="Monaco" font-size="14" fill="white" x="0" y="14" xml:space="preserve">expose</tspan>
          </text>
        </g>
      </g>
      <g id="Group_69">
        <g id="Graphic_71">
          <path d="M 127.55905 263.69257 L 198.4252 299.12564 L 127.55905 334.5587 L 56.69291 299.12564 Z" fill="#929292"/>
          <path d="M 127.55905 263.69257 L 198.4252 299.12564 L 127.55905 334.5587 L 56.69291 299.12564 Z" stroke="black" stroke-linecap="round" stroke-linejoin="round" stroke-width="0"/>
        </g>
        <g id="Graphic_70">
          <text transform="translate(102.35495 289.54117)" fill="white">
            <tspan font-family="Monaco" font-size="14" fill="white" x="0" y="14" xml:space="preserve">deploy</tspan>
          </text>
        </g>
      </g>
      <g id="Group_65">
        <g id="Graphic_67">
          <path d="M 373.8955 516.9048 L 599.0136 516.9048 C 607.2979 516.9048 614.0136 523.6205 614.0136 531.9048 L 614.0136 572.7709 C 614.0136 581.0552 607.2979 587.7709 599.0136 587.7709 L 373.8955 587.7709 C 365.61124 587.7709 358.8955 581.0552 358.8955 572.7709 L 358.8955 531.9048 C 358.8955 523.6205 365.61124 516.9048 373.8955 516.9048 Z" fill="#84baf9"/>
          <path d="M 373.8955 516.9048 L 599.0136 516.9048 C 607.2979 516.9048 614.0136 523.6205 614.0136 531.9048 L 614.0136 572.7709 C 614.0136 581.0552 607.2979 587.7709 599.0136 587.7709 L 373.8955 587.7709 C 365.61124 587.7709 358.8955 581.0552 358.8955 572.7709 L 358.8955 531.9048 C 358.8955 523.6205 365.61124 516.9048 373.8955 516.9048 Z" stroke="black" stroke-linecap="round" stroke-linejoin="round" stroke-width="0"/>
        </g>
        <g id="Graphic_66">
          <text transform="translate(428.8452 536.3359)" fill="white">
            <tspan font-family="Monaco" font-size="24" fill="white" x="0" y="24" xml:space="preserve">Database</tspan>
          </text>
        </g>
      </g>
      <g id="Graphic_64"/>
      <g id="Graphic_63">
        <text transform="translate(501.41364 492.8364)" fill="#ffb64c">
          <tspan font-family="Monaco" font-size="12" fill="#ffb64c" x="0" y="12" xml:space="preserve">pg-test</tspan>
          <tspan font-family="Monaco" font-size="12" fill="black" y="12" xml:space="preserve">-</tspan>
          <tspan font-family="Monaco" font-size="12" fill="#5cc49f" y="12" xml:space="preserve">1.</tspan>
          <tspan font-family="Monaco" font-size="12" fill="#60acfd" y="12" xml:space="preserve">test</tspan>
        </text>
      </g>
      <g id="Graphic_62">
        <text transform="translate(404.7836 207.3158)" fill="#ffb64c">
          <tspan font-family="Monaco" font-size="12" fill="#ffb64c" x="0" y="12" xml:space="preserve">pg-test</tspan>
          <tspan font-family="Monaco" font-size="12" fill="black" y="12" xml:space="preserve">-</tspan>
          <tspan font-family="Monaco" font-size="12" fill="#5cc49f" y="12" xml:space="preserve">1</tspan>
          <tspan font-family="Monaco" font-size="12" fill="#ffb64c" x="0" y="28.001953" xml:space="preserve">pg-test</tspan>
          <tspan font-family="Monaco" font-size="12" fill="black" y="28.001953" xml:space="preserve">-</tspan>
          <tspan font-family="Monaco" font-size="12" fill="#5cc49f" y="28.001953" xml:space="preserve">2</tspan>
          <tspan font-family="Monaco" font-size="12" fill="#ffb64c" x="0" y="44.003906" xml:space="preserve">pg-test</tspan>
          <tspan font-family="Monaco" font-size="12" fill="black" y="44.003906" xml:space="preserve">-</tspan>
          <tspan font-family="Monaco" font-size="12" fill="#5cc49f" y="44.003906" xml:space="preserve">3</tspan>
        </text>
      </g>
      <g id="Graphic_61">
        <text transform="translate(607.0014 135.27545)" fill="#ffb64c">
          <tspan font-family="Monaco" font-size="12" fill="#ffb64c" x="0" y="12" xml:space="preserve">pg-test</tspan>
          <tspan font-family="Monaco" font-size="12" fill="black" y="12" xml:space="preserve">-</tspan>
          <tspan font-family="Monaco" font-size="12" fill="#808adc" y="12" xml:space="preserve">primary</tspan>
          <tspan font-family="Monaco" font-size="12" fill="#ffb64c" x="0" y="28.001953" xml:space="preserve">pg-test</tspan>
          <tspan font-family="Monaco" font-size="12" fill="black" y="28.001953" xml:space="preserve">-</tspan>
          <tspan font-family="Monaco" font-size="12" fill="#808adc" y="28.001953" xml:space="preserve">replica</tspan>
          <tspan font-family="Monaco" font-size="12" fill="#ffb64c" x="0" y="44.003906" xml:space="preserve">pg-test</tspan>
          <tspan font-family="Monaco" font-size="12" fill="black" y="44.003906" xml:space="preserve">-</tspan>
          <tspan font-family="Monaco" font-size="12" fill="#808adc" y="44.003906" xml:space="preserve">default</tspan>
          <tspan font-family="Monaco" font-size="12" fill="#ffb64c" x="0" y="60.00586" xml:space="preserve">pg-test</tspan>
          <tspan font-family="Monaco" font-size="12" fill="black" y="60.00586" xml:space="preserve">-</tspan>
          <tspan font-family="Monaco" font-size="12" fill="#808adc" y="60.00586" xml:space="preserve">offline</tspan>
        </text>
      </g>
      <g id="Group_58">
        <g id="Graphic_60">
          <path d="M 15 392.3064 L 240.1181 392.3064 C 248.40238 392.3064 255.1181 399.02214 255.1181 407.3064 L 255.1181 448.17255 C 255.1181 456.4568 248.40238 463.17255 240.1181 463.17255 L 15 463.17255 C 6.715729 463.17255 5785795e-20 456.4568 5684342e-20 448.17255 L 58619776e-21 407.3064 C 59634306e-21 399.02214 6.715729 392.3064 15 392.3064 Z" fill="#497fa0"/>
          <path d="M 15 392.3064 L 240.1181 392.3064 C 248.40238 392.3064 255.1181 399.02214 255.1181 407.3064 L 255.1181 448.17255 C 255.1181 456.4568 248.40238 463.17255 240.1181 463.17255 L 15 463.17255 C 6.715729 463.17255 5785795e-20 456.4568 5684342e-20 448.17255 L 58619776e-21 407.3064 C 59634306e-21 399.02214 6.715729 392.3064 15 392.3064 Z" stroke="black" stroke-linecap="round" stroke-linejoin="round" stroke-width="0"/>
        </g>
        <g id="Graphic_59">
          <text transform="translate(91.55319 411.73753)" fill="white">
            <tspan font-family="Monaco" font-size="24" fill="white" x="0" y="24" xml:space="preserve">Table</tspan>
          </text>
        </g>
      </g>
      <g id="Graphic_57">
        <text transform="translate(746.1027 339.5587)" fill="#497fa0">
          <tspan font-family="Monaco" font-size="12" fill="#497fa0" x="0" y="12" xml:space="preserve">queryid  = 1078821737499742052</tspan>
          <tspan font-family="Monaco" font-size="12" fill="#497fa0" x="0" y="28.001953" xml:space="preserve">idxname  = pigsty.cluster_pkey</tspan>
          <tspan font-family="Monaco" font-size="12" fill="#497fa0" x="0" y="44.003906" xml:space="preserve">funcname = monitor.heartbeat</tspan>
        </text>
      </g>
      <g id="Group_54">
        <g id="Graphic_56">
          <path d="M 373.8055 263.69257 L 598.9236 263.69257 C 607.2079 263.69257 613.9236 270.4083 613.9236 278.69257 L 613.9236 319.5587 C 613.9236 327.843 607.2079 334.5587 598.9236 334.5587 L 373.8055 334.5587 C 365.52125 334.5587 358.80552 327.843 358.80552 319.5587 L 358.80552 278.69257 C 358.80552 270.4083 365.52125 263.69257 373.8055 263.69257 Z" fill="#88ccb1"/>
          <path d="M 373.8055 263.69257 L 598.9236 263.69257 C 607.2079 263.69257 613.9236 270.4083 613.9236 278.69257 L 613.9236 319.5587 C 613.9236 327.843 607.2079 334.5587 598.9236 334.5587 L 373.8055 334.5587 C 365.52125 334.5587 358.80552 327.843 358.80552 319.5587 L 358.80552 278.69257 C 358.80552 270.4083 365.52125 263.69257 373.8055 263.69257 Z" stroke="black" stroke-linecap="round" stroke-linejoin="round" stroke-width="0"/>
        </g>
        <g id="Graphic_55">
          <text transform="translate(428.7552 283.1237)" fill="white">
            <tspan font-family="Monaco" font-size="24" fill="white" x="0" y="24" xml:space="preserve">Instance</tspan>
          </text>
        </g>
      </g>
      <g id="Group_51">
        <g id="Graphic_53">
          <path d="M 859.9079 263.69257 L 930.774 299.12564 L 859.9079 334.5587 L 789.0417 299.12564 Z" fill="#929292"/>
          <path d="M 859.9079 263.69257 L 930.774 299.12564 L 859.9079 334.5587 L 789.0417 299.12564 Z" stroke="black" stroke-linecap="round" stroke-linejoin="round" stroke-width="0"/>
        </g>
        <g id="Graphic_52">
          <text transform="translate(838.9045 289.54117)" fill="white">
            <tspan font-family="Monaco" font-size="14" fill="white" x="0" y="14" xml:space="preserve">serve</tspan>
          </text>
        </g>
      </g>
      <g id="Group_48">
        <g id="Graphic_50">
          <path d="M 486.3646 128.07874 L 557.2307 163.51181 L 486.3646 198.94488 L 415.49843 163.51181 Z" fill="#929292"/>
          <path d="M 486.3646 128.07874 L 557.2307 163.51181 L 486.3646 198.94488 L 415.49843 163.51181 Z" stroke="black" stroke-linecap="round" stroke-linejoin="round" stroke-width="0"/>
        </g>
        <g id="Graphic_49">
          <text transform="translate(452.8491 153.92734)" fill="white">
            <tspan font-family="Monaco" font-size="14" fill="white" x="0" y="14" xml:space="preserve">contains</tspan>
          </text>
        </g>
      </g>
      <g id="Line_47">
        <line x1="613.9236" y1="35.43307" x2="780.9417" y2="35.43307" marker-end="url(#FilledArrow_Marker)" stroke="#666" stroke-linecap="round" stroke-linejoin="round" stroke-width="2"/>
      </g>
      <g id="Line_46">
        <line x1="859.9079" y1="70.86614" x2="859.9079" y2="119.97874" marker-end="url(#FilledArrow_Marker)" stroke="#666" stroke-linecap="round" stroke-linejoin="round" stroke-width="2"/>
      </g>
      <g id="Line_45">
        <line x1="859.9079" y1="198.94488" x2="859.9079" y2="255.59257" marker-end="url(#FilledArrow_Marker)" stroke="#666" stroke-linecap="round" stroke-linejoin="round" stroke-width="2"/>
      </g>
      <g id="Line_44">
        <line x1="127.55905" y1="198.94488" x2="127.55905" y2="255.59257" marker-end="url(#FilledArrow_Marker)" stroke="#666" stroke-linecap="round" stroke-linejoin="round" stroke-width="2"/>
      </g>
      <g id="Line_43">
        <line x1="127.55905" y1="70.86614" x2="127.55905" y2="119.97874" marker-end="url(#FilledArrow_Marker)" stroke="#666" stroke-linecap="round" stroke-linejoin="round" stroke-width="2"/>
      </g>
      <g id="Line_42">
        <line x1="206.5252" y1="35.43307" x2="358.80552" y2="35.43307" marker-start="url(#FilledArrow_Marker_2)" stroke="#666" stroke-linecap="round" stroke-linejoin="round" stroke-width="2"/>
      </g>
      <g id="Line_41">
        <line x1="198.4252" y1="299.12564" x2="350.70552" y2="299.12564" marker-end="url(#FilledArrow_Marker)" stroke="#666" stroke-linecap="round" stroke-linejoin="round" stroke-width="2"/>
      </g>
      <g id="Line_40">
        <line x1="622.0236" y1="299.12564" x2="789.0417" y2="299.12564" marker-start="url(#FilledArrow_Marker_2)" stroke="#666" stroke-linecap="round" stroke-linejoin="round" stroke-width="2"/>
      </g>
      <g id="Line_39">
        <line x1="486.3646" y1="70.86614" x2="486.3646" y2="119.97874" marker-end="url(#FilledArrow_Marker)" stroke="#666" stroke-linecap="round" stroke-linejoin="round" stroke-width="2"/>
      </g>
      <g id="Line_38">
        <line x1="486.3646" y1="198.94488" x2="486.3646" y2="255.59257" marker-end="url(#FilledArrow_Marker)" stroke="#666" stroke-linecap="round" stroke-linejoin="round" stroke-width="2"/>
      </g>
      <g id="Group_35">
        <g id="Graphic_37">
          <path d="M 747.3488 392.3064 L 972.4669 392.3064 C 980.7512 392.3064 987.4669 399.02214 987.4669 407.3064 L 987.4669 448.17255 C 987.4669 456.4568 980.7512 463.17255 972.4669 463.17255 L 747.3488 463.17255 C 739.06455 463.17255 732.3488 456.4568 732.3488 448.17255 L 732.3488 407.3064 C 732.3488 399.02214 739.06455 392.3064 747.3488 392.3064 Z" fill="#497fa0" fill-opacity=".6320987"/>
          <path d="M 747.3488 392.3064 L 972.4669 392.3064 C 980.7512 392.3064 987.4669 399.02214 987.4669 407.3064 L 987.4669 448.17255 C 987.4669 456.4568 980.7512 463.17255 972.4669 463.17255 L 747.3488 463.17255 C 739.06455 463.17255 732.3488 456.4568 732.3488 448.17255 L 732.3488 407.3064 C 732.3488 399.02214 739.06455 392.3064 747.3488 392.3064 Z" stroke="black" stroke-linecap="round" stroke-linejoin="round" stroke-width="0"/>
        </g>
        <g id="Graphic_36">
          <text transform="translate(816.7008 411.73753)" fill="white">
            <tspan font-family="Monaco" font-size="24" fill="white" x="0" y="24" xml:space="preserve">Object</tspan>
          </text>
        </g>
      </g>
      <g id="Graphic_34">
        <text transform="translate(501.32365 111.2861)" fill="#666">
          <tspan font-family="Monaco" font-size="12" fill="#666" x="0" y="12" xml:space="preserve">1</tspan>
        </text>
      </g>
      <g id="Graphic_33">
        <text transform="translate(501.32365 197.14862)" fill="#666">
          <tspan font-family="Monaco" font-size="12" fill="#666" x="0" y="12" xml:space="preserve">n</tspan>
        </text>
      </g>
      <g id="Graphic_32">
        <text transform="translate(793.0001 45.35105)" fill="#666">
          <tspan font-family="Monaco" font-size="12" fill="#666" x="0" y="12" xml:space="preserve">1</tspan>
        </text>
      </g>
      <g id="Graphic_31">
        <text transform="translate(837.9788 75.86614)" fill="#666">
          <tspan font-family="Monaco" font-size="12" fill="#666" x="0" y="12" xml:space="preserve">n</tspan>
        </text>
      </g>
      <g id="Graphic_30">
        <text transform="translate(837.9788 242.69062)" fill="#666">
          <tspan font-family="Monaco" font-size="12" fill="#666" x="0" y="12" xml:space="preserve">1</tspan>
        </text>
      </g>
      <g id="Graphic_29">
        <text transform="translate(786.9551 273.2057)" fill="#666">
          <tspan font-family="Monaco" font-size="12" fill="#666" x="0" y="12" xml:space="preserve">n</tspan>
        </text>
      </g>
      <g id="Graphic_28">
        <text transform="translate(197.7559 45.35105)" fill="#666">
          <tspan font-family="Monaco" font-size="12" fill="#666" x="0" y="12" xml:space="preserve">1</tspan>
        </text>
      </g>
      <g id="Graphic_27">
        <text transform="translate(138.22168 75.86614)" fill="#666">
          <tspan font-family="Monaco" font-size="12" fill="#666" x="0" y="12" xml:space="preserve">n</tspan>
        </text>
      </g>
      <g id="Graphic_26">
        <text transform="translate(138.22168 242.69062)" fill="#666">
          <tspan font-family="Monaco" font-size="12" fill="#666" x="0" y="12" xml:space="preserve">1</tspan>
        </text>
      </g>
      <g id="Graphic_25">
        <text transform="translate(197.7559 273.2057)" fill="#666">
          <tspan font-family="Monaco" font-size="12" fill="#666" x="0" y="12" xml:space="preserve">1</tspan>
        </text>
      </g>
      <g id="Group_22">
        <g id="Graphic_24">
          <path d="M 486.45456 394.6981 L 557.3207 430.13117 L 486.45456 465.56424 L 415.5884 430.13117 Z" fill="#929292"/>
          <path d="M 486.45456 394.6981 L 557.3207 430.13117 L 486.45456 465.56424 L 415.5884 430.13117 Z" stroke="black" stroke-linecap="round" stroke-linejoin="round" stroke-width="0"/>
        </g>
        <g id="Graphic_23">
          <text transform="translate(456.9598 420.5467)" fill="white">
            <tspan font-family="Monaco" font-size="14" fill="white" x="0" y="14" xml:space="preserve">contain</tspan>
          </text>
        </g>
      </g>
      <g id="Line_21">
        <line x1="486.40556" y1="342.6587" x2="486.44694" y2="386.5981" marker-end="url(#FilledArrow_Marker)" marker-start="url(#FilledArrow_Marker_2)" stroke="#666" stroke-linecap="round" stroke-linejoin="round" stroke-width="2"/>
      </g>
      <g id="Line_20">
        <line x1="486.45456" y1="473.66424" x2="486.45456" y2="508.8048" marker-end="url(#FilledArrow_Marker)" marker-start="url(#FilledArrow_Marker_2)" stroke="#666" stroke-linecap="round" stroke-linejoin="round" stroke-width="2"/>
      </g>
      <g id="Graphic_19">
        <text transform="translate(501.41364 377.90547)" fill="#666">
          <tspan font-family="Monaco" font-size="12" fill="#666" x="0" y="12" xml:space="preserve">1</tspan>
        </text>
      </g>
      <g id="Graphic_18">
        <text transform="translate(501.41364 463.768)" fill="#666">
          <tspan font-family="Monaco" font-size="12" fill="#666" x="0" y="12" xml:space="preserve">n</tspan>
        </text>
      </g>
      <g id="Group_15">
        <g id="Graphic_17">
          <path d="M 127.55905 516.9048 L 198.4252 552.33785 L 127.55905 587.7709 L 56.69291 552.33785 Z" fill="#929292"/>
          <path d="M 127.55905 516.9048 L 198.4252 552.33785 L 127.55905 587.7709 L 56.69291 552.33785 Z" stroke="black" stroke-linecap="round" stroke-linejoin="round" stroke-width="0"/>
        </g>
        <g id="Graphic_16">
          <text transform="translate(98.15427 542.7534)" fill="white">
            <tspan font-family="Monaco" font-size="14" fill="white" x="0" y="14" xml:space="preserve">contain</tspan>
          </text>
        </g>
      </g>
      <g id="Line_14">
        <line x1="127.55905" y1="471.27255" x2="127.55905" y2="508.8048" marker-end="url(#FilledArrow_Marker)" marker-start="url(#FilledArrow_Marker_2)" stroke="#666" stroke-linecap="round" stroke-linejoin="round" stroke-width="2"/>
      </g>
      <g id="Line_13">
        <line x1="206.5252" y1="552.33785" x2="350.7955" y2="552.33785" marker-end="url(#FilledArrow_Marker)" marker-start="url(#FilledArrow_Marker_2)" stroke="#666" stroke-linecap="round" stroke-linejoin="round" stroke-width="2"/>
      </g>
      <g id="Graphic_12">
        <text transform="translate(138.22168 495.9028)" fill="#666">
          <tspan font-family="Monaco" font-size="12" fill="#666" x="0" y="12" xml:space="preserve">n</tspan>
        </text>
      </g>
      <g id="Graphic_11">
        <text transform="translate(197.7559 526.4179)" fill="#666">
          <tspan font-family="Monaco" font-size="12" fill="#666" x="0" y="12" xml:space="preserve">1</tspan>
        </text>
      </g>
      <g id="Group_8">
        <g id="Graphic_10">
          <path d="M 860.0879 516.9048 L 930.954 552.33785 L 860.0879 587.7709 L 789.2217 552.33785 Z" fill="#929292"/>
          <path d="M 860.0879 516.9048 L 930.954 552.33785 L 860.0879 587.7709 L 789.2217 552.33785 Z" stroke="black" stroke-linecap="round" stroke-linejoin="round" stroke-width="0"/>
        </g>
        <g id="Graphic_9">
          <text transform="translate(830.6831 542.7534)" fill="white">
            <tspan font-family="Monaco" font-size="14" fill="white" x="0" y="14" xml:space="preserve">contain</tspan>
          </text>
        </g>
      </g>
      <g id="Line_7">
        <line x1="859.9957" y1="471.27253" x2="860.0715" y2="508.8048" marker-end="url(#FilledArrow_Marker)" marker-start="url(#FilledArrow_Marker_2)" stroke="#666" stroke-linecap="round" stroke-linejoin="round" stroke-width="2"/>
      </g>
      <g id="Line_6">
        <line x1="622.1136" y1="552.33785" x2="781.1217" y2="552.33785" marker-end="url(#FilledArrow_Marker)" marker-start="url(#FilledArrow_Marker_2)" stroke="#666" stroke-linecap="round" stroke-linejoin="round" stroke-width="2"/>
      </g>
      <g id="Graphic_5">
        <text transform="translate(837.9788 495.9028)" fill="#666">
          <tspan font-family="Monaco" font-size="12" fill="#666" x="0" y="12" xml:space="preserve">n</tspan>
        </text>
      </g>
      <g id="Graphic_4">
        <text transform="translate(796.9142 526.4179)" fill="#666">
          <tspan font-family="Monaco" font-size="12" fill="#666" x="0" y="12" xml:space="preserve">1</tspan>
        </text>
      </g>
      <g id="Graphic_3">
        <text transform="translate(5.278265 369.2967)" fill="#497fa0">
          <tspan font-family="Monaco" font-size="12" fill="#497fa0" x="0" y="12" xml:space="preserve">relname  = public.pgbench_accounts</tspan>
        </text>
      </g>
      <g id="Graphic_2">
        <text transform="translate(269.6474 139.50888)" fill="#ff7c7b">
          <tspan font-family="Monaco" font-size="12" fill="#ff7c7b" x="0" y="12" xml:space="preserve">10.10.10.11</tspan>
          <tspan font-family="Monaco" font-size="12" fill="#ff7c7b" x="0" y="28.001953" xml:space="preserve">10.10.10.12</tspan>
          <tspan font-family="Monaco" font-size="12" fill="#ff7c7b" x="0" y="44.003906" xml:space="preserve">10.10.10.13</tspan>
        </text>
      </g>
      <g id="Graphic_93">
        <text transform="translate(404.7836 89.41295)" fill="#ffb64c">
          <tspan font-family="Monaco" font-size="12" fill="#ffb64c" x="0" y="12" xml:space="preserve">pg-test</tspan>
        </text>
      </g>
    </g>
  </g>
</svg>
